<svg id="svg" version="1.1" width="400" height="300" viewBox="0 0 400 300" xmlns="http://www.w3.org/2000/svg" xmlns:xlink="http://www.w3.org/1999/xlink" ><g id="svgg"><path id="path0" d="M180.227 80.595 C 180.127 80.856,180.045 81.463,180.045 81.945 C 180.045 82.427,179.775 83.091,179.445 83.421 C 179.082 83.784,178.845 84.421,178.845 85.035 C 178.845 85.592,178.642 86.216,178.395 86.422 C 178.147 86.627,177.944 87.261,177.944 87.830 C 177.944 88.399,177.742 89.068,177.494 89.315 C 177.247 89.563,177.044 90.019,177.044 90.329 C 177.044 90.639,176.832 91.012,176.572 91.157 C 176.309 91.304,176.022 92.005,175.923 92.743 C 175.826 93.470,175.566 94.245,175.345 94.465 C 175.124 94.686,174.944 95.313,174.944 95.859 C 174.944 96.404,174.741 97.019,174.494 97.224 C 174.237 97.437,174.044 98.092,174.044 98.747 C 174.044 99.479,173.873 99.991,173.572 100.159 C 173.308 100.307,173.022 101.007,172.923 101.745 C 172.825 102.472,172.565 103.247,172.344 103.468 C 172.124 103.688,171.943 104.113,171.943 104.411 C 171.943 104.709,171.740 105.121,171.493 105.326 C 171.245 105.532,171.043 106.156,171.043 106.713 C 171.043 107.327,170.806 107.964,170.443 108.327 C 170.079 108.690,169.842 109.327,169.842 109.941 C 169.842 110.498,169.640 111.122,169.392 111.328 C 169.138 111.539,168.942 112.193,168.942 112.828 C 168.942 113.464,168.746 114.118,168.492 114.329 C 168.245 114.534,168.042 115.158,168.042 115.716 C 168.042 116.329,167.805 116.966,167.442 117.329 C 167.112 117.659,166.842 118.183,166.842 118.493 C 166.842 118.803,166.639 119.224,166.392 119.430 C 166.144 119.635,165.941 120.269,165.941 120.838 C 165.941 121.408,165.739 122.076,165.491 122.323 C 165.244 122.571,165.041 123.237,165.041 123.802 C 165.041 124.431,164.808 125.065,164.441 125.431 C 164.078 125.795,163.841 126.432,163.841 127.045 C 163.841 127.602,163.638 128.227,163.391 128.432 C 163.143 128.638,162.941 129.271,162.941 129.841 C 162.941 130.410,162.738 131.078,162.491 131.326 C 162.243 131.573,162.041 132.030,162.041 132.340 C 162.041 132.650,161.828 133.022,161.569 133.167 C 161.305 133.315,161.019 134.015,160.920 134.753 C 160.822 135.480,160.562 136.255,160.341 136.476 C 160.121 136.697,159.940 137.324,159.940 137.869 C 159.940 138.415,159.737 139.029,159.490 139.235 C 159.233 139.448,159.040 140.102,159.040 140.757 C 159.040 141.490,158.869 142.001,158.568 142.170 C 158.305 142.317,158.018 143.018,157.919 143.755 C 157.821 144.482,157.561 145.258,157.340 145.478 C 157.120 145.699,156.939 146.123,156.939 146.421 C 156.939 146.719,156.737 147.131,156.489 147.337 C 156.242 147.542,156.039 148.166,156.039 148.724 C 156.039 149.337,155.802 149.974,155.439 150.338 C 155.076 150.701,154.839 151.338,154.839 151.951 C 154.839 152.509,154.636 153.133,154.389 153.338 C 154.135 153.549,153.938 154.203,153.938 154.839 C 153.938 155.474,153.742 156.128,153.488 156.339 C 153.241 156.545,153.038 157.169,153.038 157.726 C 153.038 158.340,152.801 158.977,152.438 159.340 C 152.108 159.670,151.838 160.194,151.838 160.503 C 151.838 160.813,151.635 161.235,151.388 161.440 C 151.140 161.646,150.938 162.280,150.938 162.849 C 150.938 163.418,150.735 164.086,150.488 164.334 C 150.240 164.582,150.038 165.247,150.038 165.813 C 150.038 166.442,149.804 167.075,149.437 167.442 C 149.074 167.805,148.837 168.442,148.837 169.056 C 148.837 169.613,148.635 170.237,148.387 170.443 C 148.140 170.648,147.937 171.282,147.937 171.851 C 147.937 172.420,147.734 173.089,147.487 173.336 C 147.239 173.584,147.037 174.040,147.037 174.350 C 147.037 174.660,146.824 175.033,146.565 175.178 C 146.302 175.325,146.015 176.026,145.916 176.764 C 145.818 177.491,145.558 178.266,145.337 178.486 C 145.117 178.707,144.936 179.334,144.936 179.880 C 144.936 180.425,144.734 181.040,144.486 181.245 C 144.229 181.458,144.036 182.113,144.036 182.768 C 144.036 183.500,143.865 184.012,143.564 184.180 C 143.301 184.328,143.014 185.028,142.915 185.766 C 142.818 186.493,142.557 187.268,142.337 187.489 C 142.116 187.709,141.935 188.134,141.935 188.432 C 141.935 188.730,141.733 189.142,141.485 189.347 C 141.238 189.553,141.035 190.177,141.035 190.734 C 141.035 191.348,140.798 191.985,140.435 192.348 C 140.072 192.711,139.835 193.348,139.835 193.962 C 139.835 194.519,139.632 195.143,139.385 195.349 C 139.131 195.560,138.935 196.214,138.935 196.849 C 138.935 197.485,138.738 198.139,138.485 198.350 C 138.237 198.555,138.035 199.179,138.035 199.737 C 138.035 200.350,137.798 200.987,137.434 201.350 C 136.416 202.369,136.881 204.051,138.180 204.051 C 138.579 204.051,139.024 204.263,139.169 204.523 C 139.318 204.788,140.013 205.070,140.759 205.167 C 141.489 205.262,142.194 205.522,142.325 205.745 C 142.457 205.969,142.880 206.152,143.264 206.152 C 143.648 206.152,144.131 206.354,144.336 206.602 C 144.542 206.849,145.166 207.052,145.723 207.052 C 146.337 207.052,146.974 207.289,147.337 207.652 C 147.700 208.015,148.337 208.252,148.951 208.252 C 149.508 208.252,150.132 208.455,150.338 208.702 C 150.548 208.956,151.202 209.152,151.838 209.152 C 152.473 209.152,153.128 209.349,153.338 209.602 C 153.544 209.850,154.168 210.053,154.725 210.053 C 155.339 210.053,155.976 210.289,156.339 210.653 C 156.669 210.983,157.195 211.253,157.507 211.253 C 157.820 211.253,158.153 211.455,158.248 211.703 C 158.366 212.009,158.845 212.153,159.748 212.153 C 160.652 212.153,161.131 212.297,161.249 212.603 C 161.363 212.900,161.833 213.053,162.631 213.053 C 163.441 213.053,164.039 213.252,164.441 213.653 C 164.805 214.018,165.441 214.254,166.059 214.254 C 166.688 214.254,167.144 214.426,167.250 214.704 C 167.368 215.010,167.847 215.154,168.751 215.154 C 169.654 215.154,170.134 215.298,170.251 215.604 C 170.346 215.851,170.759 216.054,171.168 216.054 C 171.578 216.054,172.032 216.266,172.177 216.526 C 172.322 216.785,173.002 217.073,173.688 217.165 C 174.374 217.257,175.088 217.517,175.276 217.743 C 175.464 217.969,176.124 218.155,176.744 218.155 C 177.380 218.155,178.034 218.351,178.245 218.605 C 178.458 218.861,179.112 219.055,179.767 219.055 C 180.499 219.055,181.011 219.226,181.179 219.527 C 181.325 219.786,182.005 220.074,182.690 220.166 C 183.376 220.258,184.091 220.518,184.278 220.744 C 184.466 220.970,184.924 221.155,185.296 221.155 C 185.669 221.155,186.141 221.358,186.347 221.605 C 186.552 221.853,187.176 222.056,187.734 222.056 C 188.347 222.056,188.984 222.292,189.347 222.656 C 189.711 223.019,190.348 223.256,190.961 223.256 C 191.518 223.256,192.143 223.458,192.348 223.706 C 192.559 223.960,193.213 224.156,193.848 224.156 C 194.484 224.156,195.138 224.352,195.349 224.606 C 195.554 224.854,196.178 225.056,196.736 225.056 C 197.349 225.056,197.986 225.293,198.350 225.656 C 198.680 225.986,199.205 226.257,199.518 226.257 C 199.830 226.257,200.164 226.459,200.259 226.707 C 200.376 227.013,200.856 227.157,201.759 227.157 C 202.662 227.157,203.142 227.301,203.259 227.607 C 203.373 227.904,203.843 228.057,204.642 228.057 C 205.451 228.057,206.050 228.256,206.452 228.657 C 206.816 229.021,207.452 229.257,208.070 229.257 C 208.698 229.257,209.154 229.430,209.261 229.707 C 209.378 230.014,209.858 230.158,210.761 230.158 C 211.664 230.158,212.144 230.301,212.262 230.608 C 212.357 230.855,212.769 231.058,213.179 231.058 C 213.589 231.058,214.042 231.270,214.188 231.530 C 214.333 231.789,215.013 232.077,215.699 232.169 C 216.384 232.261,217.099 232.521,217.287 232.747 C 217.474 232.973,218.135 233.158,218.755 233.158 C 219.390 233.158,220.044 233.355,220.255 233.608 C 220.468 233.865,221.122 234.059,221.777 234.059 C 222.510 234.059,223.022 234.229,223.190 234.530 C 223.335 234.790,224.015 235.077,224.701 235.169 C 225.387 235.261,226.101 235.522,226.289 235.748 C 226.477 235.974,226.935 236.159,227.307 236.159 C 227.679 236.159,228.152 236.362,228.357 236.609 C 228.563 236.857,229.187 237.059,229.744 237.059 C 230.358 237.059,230.995 237.296,231.358 237.659 C 231.721 238.023,232.358 238.260,232.972 238.260 C 233.529 238.260,234.153 238.462,234.359 238.710 C 234.569 238.964,235.223 239.160,235.859 239.160 C 236.495 239.160,237.149 239.356,237.359 239.610 C 237.565 239.857,238.189 240.060,238.746 240.060 C 239.360 240.060,239.997 240.297,240.360 240.660 C 240.690 240.990,241.216 241.260,241.528 241.260 C 241.841 241.260,242.174 241.463,242.269 241.710 C 242.387 242.017,242.866 242.161,243.769 242.161 C 244.673 242.161,245.152 242.304,245.270 242.611 C 245.384 242.908,245.854 243.061,246.652 243.061 C 247.462 243.061,248.060 243.259,248.462 243.661 C 249.861 245.059,252.063 244.247,252.063 242.332 C 252.063 241.447,252.208 240.969,252.513 240.852 C 252.822 240.733,252.963 240.251,252.963 239.319 C 252.963 238.301,253.078 237.959,253.421 237.959 C 253.688 237.959,253.953 237.589,254.057 237.066 C 254.155 236.575,254.422 236.018,254.650 235.829 C 254.877 235.640,255.064 234.978,255.064 234.359 C 255.064 233.723,255.260 233.069,255.514 232.858 C 255.761 232.653,255.964 232.029,255.964 231.471 C 255.964 230.858,256.201 230.221,256.564 229.857 C 256.927 229.494,257.164 228.857,257.164 228.244 C 257.164 227.686,257.367 227.062,257.614 226.857 C 257.868 226.646,258.065 225.992,258.065 225.356 C 258.065 224.721,258.261 224.067,258.515 223.856 C 258.762 223.651,258.965 223.194,258.965 222.841 C 258.965 222.488,259.235 222.031,259.565 221.825 C 259.997 221.555,260.165 221.125,260.165 220.289 C 260.165 219.623,260.357 218.969,260.615 218.755 C 260.863 218.549,261.065 217.915,261.065 217.346 C 261.065 216.777,261.268 216.109,261.515 215.861 C 262.989 214.388,261.351 210.953,259.175 210.953 C 258.604 210.953,257.970 210.750,257.764 210.503 C 257.495 210.178,256.782 210.053,255.209 210.053 C 253.547 210.053,252.986 209.945,252.855 209.602 C 252.729 209.274,252.212 209.152,250.944 209.152 C 249.532 209.152,249.137 209.040,248.832 208.552 C 248.618 208.210,248.132 207.952,247.700 207.952 C 247.284 207.952,246.865 207.749,246.770 207.502 C 246.675 207.254,246.293 207.052,245.920 207.052 C 245.481 207.052,244.571 206.364,243.338 205.101 L 241.434 203.151 239.713 203.151 C 238.096 203.151,235.783 202.292,234.824 201.335 C 234.667 201.178,234.042 201.050,233.435 201.050 C 232.820 201.050,232.166 200.851,231.958 200.600 C 231.753 200.353,231.183 200.150,230.693 200.150 C 230.203 200.150,229.459 199.880,229.039 199.550 C 228.619 199.220,227.838 198.950,227.303 198.950 C 226.768 198.950,226.162 198.747,225.956 198.500 C 225.751 198.252,225.346 198.050,225.056 198.050 C 224.767 198.050,224.361 197.847,224.156 197.599 C 223.951 197.352,223.314 197.149,222.741 197.149 C 222.154 197.149,221.367 196.887,220.937 196.549 C 220.517 196.219,219.736 195.949,219.201 195.949 C 218.666 195.949,218.060 195.746,217.854 195.499 C 217.649 195.251,217.041 195.049,216.504 195.049 C 215.967 195.049,215.359 194.846,215.154 194.599 C 214.948 194.351,214.560 194.148,214.292 194.147 C 214.023 194.145,213.398 193.876,212.903 193.548 C 212.408 193.220,211.665 192.947,211.253 192.941 C 210.840 192.934,210.241 192.731,209.920 192.489 C 209.600 192.246,208.907 192.048,208.381 192.048 C 207.856 192.048,207.257 191.845,207.052 191.598 C 206.846 191.350,206.297 191.148,205.831 191.148 C 205.044 191.148,202.468 189.982,201.815 189.332 C 201.659 189.175,201.034 189.047,200.427 189.047 C 199.812 189.047,199.158 188.848,198.950 188.597 C 198.744 188.350,198.175 188.147,197.685 188.147 C 197.195 188.147,196.451 187.877,196.031 187.547 C 195.611 187.217,194.830 186.947,194.295 186.947 C 193.760 186.947,193.154 186.744,192.948 186.497 C 192.743 186.249,192.338 186.047,192.048 186.047 C 191.758 186.047,191.353 185.844,191.148 185.596 C 190.942 185.349,190.352 185.145,189.836 185.144 C 189.320 185.143,188.492 184.874,187.997 184.546 C 187.502 184.218,186.674 183.949,186.158 183.948 C 185.642 183.947,185.052 183.743,184.846 183.496 C 184.641 183.248,184.033 183.046,183.496 183.046 C 182.959 183.046,182.351 182.843,182.146 182.596 C 181.940 182.348,181.552 182.145,181.284 182.144 C 181.015 182.142,180.390 181.873,179.895 181.545 C 179.400 181.217,178.657 180.944,178.245 180.938 C 177.832 180.931,177.232 180.728,176.912 180.486 C 176.592 180.243,175.899 180.045,175.373 180.045 C 174.847 180.045,174.249 179.842,174.044 179.595 C 173.838 179.347,173.289 179.145,172.822 179.145 C 172.036 179.145,169.460 177.979,168.807 177.329 C 168.650 177.172,168.026 177.044,167.419 177.044 C 166.804 177.044,166.150 176.845,165.941 176.594 C 165.736 176.347,165.156 176.144,164.653 176.144 C 164.150 176.144,163.486 175.916,163.179 175.638 C 162.871 175.359,162.050 175.055,161.355 174.962 C 159.807 174.756,159.429 173.437,160.521 172.049 C 160.862 171.616,161.140 170.824,161.140 170.289 C 161.140 169.754,161.343 169.148,161.590 168.942 C 161.838 168.737,162.041 168.332,162.041 168.042 C 162.041 167.752,162.235 167.354,162.473 167.157 C 162.710 166.960,162.947 166.518,162.998 166.175 C 163.110 165.424,163.903 164.871,164.475 165.145 C 164.704 165.254,165.566 165.739,166.392 166.223 C 167.217 166.706,168.314 167.111,168.830 167.122 C 169.347 167.133,169.937 167.344,170.143 167.592 C 170.348 167.839,170.956 168.042,171.493 168.042 C 172.030 168.042,172.638 168.245,172.843 168.492 C 173.049 168.740,173.639 168.943,174.155 168.944 C 174.671 168.945,175.499 169.214,175.994 169.542 C 176.489 169.870,177.317 170.139,177.833 170.141 C 178.349 170.142,178.939 170.345,179.145 170.593 C 179.350 170.840,179.755 171.043,180.045 171.043 C 180.335 171.043,180.740 171.245,180.945 171.493 C 181.151 171.740,181.757 171.943,182.292 171.943 C 182.827 171.943,183.608 172.213,184.028 172.543 C 184.459 172.883,185.245 173.143,185.837 173.143 C 186.490 173.143,186.947 173.312,187.055 173.593 C 187.167 173.885,187.633 174.044,188.378 174.044 C 189.010 174.044,189.656 174.171,189.812 174.328 C 190.465 174.979,193.041 176.144,193.828 176.144 C 194.294 176.144,194.843 176.347,195.049 176.594 C 195.259 176.848,195.914 177.044,196.549 177.044 C 197.185 177.044,197.839 177.241,198.050 177.494 C 198.255 177.742,198.778 177.945,199.212 177.946 C 199.645 177.948,200.405 178.217,200.900 178.545 C 201.395 178.873,202.020 179.142,202.289 179.143 C 202.557 179.144,202.945 179.347,203.151 179.595 C 203.356 179.842,203.964 180.045,204.501 180.045 C 205.038 180.045,205.646 180.248,205.851 180.495 C 206.057 180.743,206.647 180.946,207.164 180.947 C 207.680 180.948,208.507 181.217,209.002 181.545 C 209.497 181.873,210.325 182.142,210.841 182.144 C 211.357 182.145,211.948 182.348,212.153 182.596 C 212.358 182.843,212.764 183.046,213.053 183.046 C 213.343 183.046,213.748 183.248,213.953 183.496 C 214.159 183.743,214.765 183.946,215.300 183.946 C 215.835 183.946,216.616 184.216,217.036 184.546 C 217.468 184.886,218.253 185.146,218.845 185.146 C 219.498 185.146,219.956 185.315,220.064 185.596 C 220.175 185.888,220.641 186.047,221.386 186.047 C 222.018 186.047,222.664 186.174,222.821 186.331 C 223.473 186.982,226.049 188.147,226.836 188.147 C 227.302 188.147,227.852 188.350,228.057 188.597 C 228.268 188.851,228.922 189.047,229.557 189.047 C 230.193 189.047,230.847 189.244,231.058 189.497 C 231.263 189.745,231.786 189.948,232.220 189.949 C 232.653 189.951,233.413 190.220,233.908 190.548 C 234.404 190.876,235.028 191.145,235.297 191.146 C 235.566 191.147,235.954 191.350,236.159 191.598 C 236.364 191.845,236.972 192.048,237.509 192.048 C 238.047 192.048,238.654 192.251,238.860 192.498 C 239.065 192.746,239.656 192.949,240.172 192.950 C 240.688 192.951,241.515 193.220,242.011 193.548 C 243.329 194.422,244.193 194.304,245.331 193.098 C 245.876 192.521,246.573 192.048,246.882 192.048 C 247.583 192.048,248.162 191.488,248.162 190.809 C 248.162 190.088,250.059 188.147,250.763 188.147 C 251.489 188.147,252.063 187.592,252.063 186.890 C 252.063 186.119,252.990 185.146,253.725 185.146 C 254.070 185.146,254.772 184.674,255.283 184.096 C 255.794 183.518,256.478 183.046,256.802 183.046 C 257.126 183.046,257.559 182.843,257.764 182.596 C 257.970 182.348,258.426 182.146,258.778 182.146 C 259.143 182.146,259.795 181.694,260.294 181.095 C 261.006 180.242,261.378 180.045,262.281 180.045 C 262.903 180.045,263.557 179.847,263.766 179.595 C 264.011 179.299,264.681 179.145,265.716 179.145 C 266.692 179.145,267.425 178.987,267.637 178.730 C 267.833 178.494,268.768 178.259,269.808 178.184 C 271.107 178.090,271.716 177.906,271.916 177.548 C 272.102 177.216,272.582 177.044,273.327 177.044 C 274.564 177.044,276.069 175.829,276.069 174.831 C 276.069 174.539,276.272 174.098,276.519 173.851 C 276.767 173.603,276.969 172.902,276.969 172.294 C 276.969 171.512,277.145 171.077,277.569 170.812 C 278.002 170.542,278.170 170.113,278.170 169.277 C 278.170 168.611,278.361 167.956,278.620 167.742 C 278.867 167.536,279.070 166.903,279.070 166.333 C 279.070 165.764,279.272 165.096,279.520 164.848 C 279.767 164.601,279.970 164.070,279.970 163.669 C 279.970 163.247,280.145 162.941,280.388 162.941 C 280.896 162.941,281.170 162.293,281.170 161.094 C 281.170 160.601,281.373 159.995,281.620 159.747 C 281.868 159.500,282.071 158.781,282.071 158.150 C 282.071 157.408,282.229 156.943,282.521 156.831 C 282.829 156.712,282.971 156.230,282.971 155.298 C 282.971 154.336,283.093 153.938,283.389 153.938 C 283.897 153.938,284.171 153.291,284.171 152.092 C 284.171 151.599,284.374 150.992,284.621 150.745 C 284.869 150.497,285.071 150.051,285.071 149.753 C 285.071 149.455,285.274 149.043,285.521 148.837 C 285.769 148.632,285.971 148.008,285.971 147.450 C 285.971 146.837,286.208 146.200,286.572 145.836 C 286.935 145.473,287.172 144.836,287.172 144.223 C 287.172 143.665,287.374 143.041,287.622 142.836 C 287.876 142.625,288.072 141.971,288.072 141.335 C 288.072 140.700,288.268 140.046,288.522 139.835 C 288.770 139.630,288.972 139.005,288.972 138.448 C 288.972 137.834,289.209 137.197,289.572 136.834 C 289.902 136.504,290.173 135.981,290.173 135.671 C 290.173 135.361,290.375 134.939,290.623 134.734 C 290.870 134.528,291.073 133.894,291.073 133.325 C 291.073 132.756,291.275 132.088,291.523 131.840 C 291.770 131.593,291.973 130.892,291.973 130.283 C 291.973 129.502,292.149 129.067,292.573 128.802 C 293.005 128.532,293.173 128.102,293.173 127.266 C 293.173 126.600,293.365 125.946,293.623 125.731 C 293.871 125.526,294.074 125.051,294.074 124.677 C 294.074 124.302,294.276 123.917,294.524 123.822 C 295.547 123.430,295.014 120.030,293.928 120.030 C 293.553 120.030,293.079 119.827,292.873 119.580 C 292.668 119.332,292.183 119.130,291.797 119.130 C 291.401 119.130,290.954 118.868,290.773 118.530 C 290.537 118.089,290.144 117.929,289.299 117.929 C 288.640 117.929,287.985 117.737,287.772 117.479 C 287.561 117.226,286.907 117.029,286.272 117.029 C 285.636 117.029,284.982 116.833,284.771 116.579 C 284.558 116.322,283.903 116.129,283.245 116.129 C 282.399 116.129,282.006 115.969,281.770 115.529 C 281.535 115.089,281.142 114.929,280.296 114.929 C 279.637 114.929,278.983 114.736,278.770 114.479 C 278.564 114.231,278.090 114.029,277.715 114.029 C 277.340 114.029,276.956 113.826,276.861 113.578 C 276.744 113.275,276.268 113.128,275.400 113.128 C 274.438 113.128,274.018 112.977,273.738 112.528 C 273.464 112.090,273.038 111.928,272.156 111.928 C 271.360 111.928,270.890 111.775,270.776 111.478 C 270.660 111.175,270.184 111.028,269.317 111.028 C 268.451 111.028,267.975 110.881,267.858 110.578 C 267.742 110.274,267.266 110.128,266.398 110.128 C 265.436 110.128,265.016 109.976,264.736 109.527 C 264.530 109.197,264.109 108.927,263.800 108.927 C 263.492 108.927,263.071 108.725,262.866 108.477 C 262.655 108.223,262.001 108.027,261.365 108.027 C 260.730 108.027,260.076 107.831,259.865 107.577 C 259.658 107.327,259.003 107.127,258.395 107.127 C 257.669 107.127,257.124 106.924,256.784 106.527 C 256.458 106.146,255.899 105.926,255.253 105.926 C 254.694 105.926,254.069 105.724,253.863 105.476 C 253.653 105.223,252.999 105.026,252.363 105.026 C 251.728 105.026,251.073 104.830,250.863 104.576 C 250.657 104.329,250.201 104.126,249.848 104.126 C 249.495 104.126,249.038 103.856,248.832 103.526 C 248.562 103.094,248.132 102.926,247.296 102.926 C 246.630 102.926,245.976 102.734,245.761 102.476 C 245.546 102.216,244.891 102.026,244.215 102.026 C 243.449 102.026,242.982 101.869,242.869 101.575 C 242.754 101.275,242.281 101.125,241.450 101.125 C 240.529 101.125,240.107 100.969,239.830 100.525 C 239.560 100.093,239.130 99.925,238.294 99.925 C 237.628 99.925,236.973 99.733,236.759 99.475 C 236.554 99.227,236.079 99.025,235.704 99.025 C 235.330 99.025,234.945 98.822,234.850 98.575 C 234.734 98.271,234.258 98.125,233.390 98.125 C 232.427 98.125,232.008 97.973,231.728 97.524 C 231.454 97.086,231.028 96.924,230.146 96.924 C 229.349 96.924,228.880 96.771,228.766 96.474 C 228.649 96.171,228.173 96.024,227.307 96.024 C 226.440 96.024,225.964 95.877,225.848 95.574 C 225.732 95.271,225.255 95.124,224.388 95.124 C 223.425 95.124,223.006 94.972,222.725 94.524 C 222.519 94.194,222.098 93.923,221.790 93.923 C 221.481 93.923,221.061 93.721,220.855 93.473 C 220.645 93.219,219.990 93.023,219.355 93.023 C 218.719 93.023,218.065 92.827,217.854 92.573 C 217.647 92.323,216.993 92.123,216.384 92.123 C 215.659 92.123,215.113 91.920,214.773 91.523 C 214.447 91.142,213.888 90.923,213.243 90.923 C 212.684 90.923,212.058 90.720,211.853 90.473 C 211.642 90.219,210.988 90.023,210.353 90.023 C 209.717 90.023,209.063 89.826,208.852 89.572 C 208.647 89.325,208.190 89.122,207.837 89.122 C 207.485 89.122,207.027 88.852,206.821 88.522 C 206.551 88.090,206.122 87.922,205.286 87.922 C 204.620 87.922,203.965 87.730,203.751 87.472 C 203.535 87.212,202.881 87.022,202.204 87.022 C 201.439 87.022,200.971 86.866,200.859 86.572 C 200.744 86.272,200.271 86.122,199.440 86.122 C 198.519 86.122,198.096 85.965,197.819 85.521 C 197.549 85.089,197.119 84.921,196.283 84.921 C 195.617 84.921,194.963 84.729,194.749 84.471 C 194.543 84.224,194.069 84.021,193.694 84.021 C 193.319 84.021,192.935 83.818,192.840 83.571 C 192.721 83.262,192.239 83.121,191.307 83.121 C 190.345 83.121,189.947 82.999,189.947 82.703 C 189.947 82.183,189.296 81.920,188.005 81.920 C 187.398 81.920,186.944 81.745,186.838 81.470 C 186.721 81.164,186.241 81.020,185.338 81.020 C 184.435 81.020,183.955 80.876,183.837 80.570 C 183.586 79.915,180.480 79.936,180.227 80.595 M248.162 122.581 C 248.427 122.900,249.129 123.031,250.582 123.031 C 251.707 123.031,252.700 123.148,252.789 123.292 C 252.932 123.524,255.368 124.789,256.564 125.253 C 256.812 125.349,257.284 125.585,257.614 125.777 C 258.676 126.394,259.097 126.614,260.015 127.031 C 260.510 127.256,261.253 127.796,261.665 128.231 C 262.078 128.666,262.677 129.024,262.996 129.027 C 263.749 129.034,264.966 130.181,264.966 130.884 C 264.966 131.185,265.439 131.954,266.017 132.594 C 266.594 133.233,267.067 133.960,267.067 134.208 C 267.067 134.457,267.269 134.828,267.517 135.034 C 267.764 135.239,267.967 135.644,267.967 135.934 C 267.967 136.224,268.161 136.622,268.398 136.818 C 268.635 137.015,268.914 137.562,269.017 138.035 C 269.121 138.507,269.400 139.054,269.637 139.251 C 269.874 139.447,270.068 139.845,270.068 140.135 C 270.068 140.425,270.270 140.830,270.518 141.035 C 270.809 141.277,270.968 141.943,270.968 142.924 C 270.968 143.946,271.139 144.628,271.493 145.019 C 271.943 145.517,272.018 146.232,272.018 150.038 C 272.018 153.843,271.943 154.558,271.493 155.056 C 271.139 155.447,270.968 156.129,270.968 157.151 C 270.968 158.132,270.809 158.798,270.518 159.040 C 270.270 159.245,270.068 159.657,270.068 159.955 C 270.068 160.253,269.872 160.693,269.632 160.933 C 269.393 161.172,269.109 161.716,269.003 162.142 C 268.896 162.568,268.619 163.073,268.388 163.265 C 268.156 163.457,267.967 163.851,267.967 164.141 C 267.967 164.431,267.764 164.836,267.517 165.041 C 267.269 165.247,267.067 165.649,267.067 165.936 C 267.067 166.223,266.594 166.959,266.017 167.571 C 265.439 168.184,264.966 168.903,264.966 169.169 C 264.966 169.830,263.781 171.043,263.135 171.043 C 262.845 171.043,262.107 171.515,261.495 172.093 C 260.882 172.671,260.171 173.143,259.914 173.143 C 259.658 173.143,259.103 173.474,258.681 173.878 C 257.792 174.729,255.237 176.144,254.588 176.144 C 254.344 176.144,254.067 176.347,253.972 176.594 C 253.840 176.937,253.280 177.044,251.618 177.044 C 250.044 177.044,249.332 177.170,249.062 177.494 C 248.759 177.860,247.797 177.944,243.961 177.944 C 240.125 177.944,239.163 177.860,238.860 177.494 C 238.595 177.176,237.895 177.044,236.459 177.044 C 235.023 177.044,234.323 176.913,234.059 176.594 C 233.853 176.347,233.486 176.144,233.244 176.144 C 233.001 176.144,232.460 175.874,232.040 175.544 C 231.620 175.214,231.050 174.944,230.773 174.944 C 230.496 174.944,229.882 174.539,229.407 174.044 C 228.933 173.548,228.327 173.143,228.060 173.143 C 227.793 173.143,227.117 172.671,226.557 172.093 C 225.997 171.515,225.320 171.043,225.054 171.043 C 224.449 171.043,222.956 169.519,222.956 168.903 C 222.956 168.652,222.626 168.137,222.223 167.759 C 221.601 167.174,220.466 165.171,219.833 163.541 C 219.737 163.293,219.533 162.888,219.378 162.641 C 219.224 162.393,219.020 161.988,218.925 161.740 C 218.830 161.493,218.357 160.615,217.873 159.790 C 217.150 158.556,216.991 157.936,216.974 156.301 C 216.960 154.919,216.817 154.198,216.504 153.938 C 216.151 153.645,216.054 152.807,216.054 150.038 C 216.054 147.268,216.151 146.430,216.504 146.137 C 216.824 145.871,216.954 145.170,216.954 143.721 C 216.954 142.336,217.094 141.538,217.390 141.243 C 217.629 141.004,217.912 140.459,218.019 140.034 C 218.126 139.608,218.403 139.102,218.634 138.910 C 218.865 138.718,219.055 138.324,219.055 138.035 C 219.055 137.745,219.257 137.340,219.505 137.134 C 219.752 136.929,219.955 136.517,219.955 136.219 C 219.955 135.921,220.140 135.492,220.366 135.266 C 220.591 135.040,220.876 134.524,220.998 134.120 C 221.119 133.715,221.805 132.776,222.520 132.033 C 223.236 131.290,223.961 130.311,224.132 129.857 C 224.302 129.404,224.665 129.032,224.937 129.032 C 225.210 129.032,225.957 128.560,226.596 127.982 C 227.236 127.404,227.970 126.932,228.229 126.932 C 228.488 126.932,228.903 126.729,229.150 126.482 C 229.398 126.234,229.844 126.032,230.142 126.032 C 230.440 126.032,230.852 125.829,231.058 125.581 C 231.263 125.334,231.630 125.131,231.872 125.131 C 232.115 125.131,232.657 124.861,233.076 124.531 C 233.496 124.201,234.033 123.931,234.270 123.931 C 234.508 123.931,234.904 123.728,235.152 123.481 C 235.464 123.169,236.229 123.031,237.644 123.031 C 239.093 123.031,239.795 122.900,240.060 122.581 C 240.355 122.225,241.208 122.131,244.111 122.131 C 247.014 122.131,247.867 122.225,248.162 122.581 M242.079 130.533 C 241.494 130.992,240.861 131.133,239.374 131.133 C 238.015 131.133,237.321 131.268,237.059 131.583 C 236.854 131.830,236.449 132.033,236.159 132.033 C 235.869 132.033,235.464 132.236,235.259 132.483 C 235.053 132.731,234.632 132.933,234.323 132.933 C 234.013 132.933,233.237 133.406,232.598 133.983 C 231.958 134.561,231.217 135.034,230.950 135.034 C 230.684 135.034,230.277 135.473,230.046 136.009 C 229.816 136.545,229.071 137.518,228.392 138.170 C 227.713 138.823,227.157 139.579,227.157 139.850 C 227.157 140.121,226.887 140.655,226.557 141.035 C 226.227 141.416,225.956 141.960,225.956 142.245 C 225.956 142.529,225.754 142.930,225.506 143.136 C 225.188 143.400,225.056 144.101,225.056 145.536 C 225.056 146.972,224.925 147.672,224.606 147.937 C 224.301 148.190,224.156 148.869,224.156 150.038 C 224.156 151.207,224.301 151.885,224.606 152.138 C 224.925 152.403,225.056 153.103,225.056 154.539 C 225.056 155.974,225.188 156.675,225.506 156.939 C 225.754 157.145,225.956 157.492,225.956 157.710 C 225.956 158.320,227.400 160.898,228.223 161.757 C 228.627 162.178,228.957 162.727,228.957 162.976 C 228.957 163.525,230.484 165.041,231.038 165.041 C 231.256 165.041,231.958 165.514,232.598 166.092 C 233.237 166.669,233.971 167.142,234.229 167.142 C 234.487 167.142,235.038 167.547,235.455 168.042 C 236.159 168.879,236.355 168.942,238.246 168.942 C 239.825 168.942,240.450 169.076,241.042 169.542 C 242.130 170.398,245.820 170.398,247.112 169.542 C 247.760 169.113,248.521 168.946,249.831 168.944 C 251.460 168.942,251.741 168.848,252.513 168.042 C 252.987 167.547,253.602 167.142,253.878 167.142 C 254.154 167.142,254.881 166.669,255.493 166.092 C 256.106 165.514,256.844 165.041,257.133 165.041 C 257.774 165.041,258.965 163.831,258.965 163.180 C 258.965 162.920,259.434 162.186,260.008 161.549 C 260.582 160.911,261.054 160.170,261.058 159.902 C 261.062 159.633,261.268 159.245,261.515 159.040 C 261.763 158.834,261.965 158.429,261.965 158.140 C 261.965 157.850,262.152 157.458,262.379 157.270 C 262.606 157.081,262.854 156.189,262.928 155.287 C 263.006 154.346,263.278 153.412,263.565 153.094 C 264.288 152.295,264.283 147.896,263.557 147.171 C 263.235 146.849,263.002 146.018,262.922 144.906 C 262.850 143.921,262.613 142.999,262.380 142.806 C 262.152 142.617,261.965 142.225,261.965 141.935 C 261.965 141.646,261.763 141.241,261.515 141.035 C 261.268 140.830,261.065 140.458,261.065 140.210 C 261.065 139.961,260.593 139.235,260.015 138.595 C 259.437 137.956,258.965 137.201,258.965 136.918 C 258.965 136.319,257.576 135.034,256.929 135.034 C 256.686 135.034,255.964 134.561,255.324 133.983 C 254.685 133.406,253.976 132.933,253.749 132.933 C 253.522 132.933,253.169 132.731,252.963 132.483 C 252.758 132.236,252.353 132.033,252.063 132.033 C 251.773 132.033,251.368 131.830,251.163 131.583 C 250.900 131.266,250.200 131.132,248.800 131.131 C 247.321 131.129,246.581 130.976,245.911 130.533 C 244.747 129.762,243.059 129.762,242.079 130.533 M317.179 171.493 C 316.974 171.740,316.348 171.943,315.789 171.943 C 315.144 171.943,314.585 172.162,314.259 172.543 C 313.868 172.999,313.374 173.143,312.198 173.143 C 311.189 173.143,310.521 173.300,310.278 173.593 C 310.024 173.898,309.346 174.044,308.172 174.044 C 306.910 174.044,306.394 174.165,306.268 174.494 C 306.147 174.810,305.654 174.944,304.610 174.944 C 302.845 174.944,302.176 175.159,302.176 175.726 C 302.176 176.022,301.778 176.144,300.816 176.144 C 299.884 176.144,299.402 176.286,299.283 176.594 C 299.157 176.922,298.641 177.044,297.379 177.044 C 296.206 177.044,295.527 177.189,295.274 177.494 C 295.027 177.792,294.355 177.944,293.289 177.944 C 292.003 177.944,291.602 178.066,291.303 178.545 C 291.023 178.993,290.603 179.145,289.641 179.145 C 288.773 179.145,288.297 179.292,288.181 179.595 C 288.054 179.925,287.533 180.045,286.230 180.045 C 284.927 180.045,284.406 180.165,284.280 180.495 C 284.153 180.824,283.635 180.945,282.349 180.945 C 280.898 180.945,280.535 181.050,280.270 181.545 C 280.004 182.043,279.642 182.146,278.150 182.146 C 276.827 182.146,276.304 182.265,276.178 182.596 C 276.061 182.899,275.585 183.046,274.719 183.046 C 273.852 183.046,273.376 183.193,273.260 183.496 C 273.138 183.812,272.645 183.946,271.602 183.946 C 269.837 183.946,269.167 184.161,269.167 184.728 C 269.167 185.038,268.711 185.146,267.404 185.146 C 266.202 185.146,265.521 185.290,265.266 185.596 C 265.061 185.844,264.576 186.047,264.190 186.047 C 262.912 186.047,262.458 187.739,263.466 188.747 C 263.921 189.203,264.066 189.747,264.066 191.007 C 264.066 192.206,264.191 192.715,264.516 192.840 C 264.844 192.966,264.966 193.482,264.966 194.744 C 264.966 195.917,265.111 196.596,265.416 196.849 C 265.664 197.055,265.866 197.679,265.866 198.236 C 265.866 198.850,266.103 199.487,266.467 199.850 C 266.886 200.269,267.067 200.850,267.067 201.776 C 267.067 204.060,267.053 204.051,270.518 204.051 C 272.984 204.051,273.639 203.961,273.777 203.601 C 273.904 203.270,274.426 203.151,275.745 203.151 C 276.935 203.151,277.620 203.014,277.780 202.745 C 277.912 202.521,278.616 202.261,279.346 202.166 C 280.092 202.069,280.787 201.788,280.936 201.522 C 281.125 201.185,281.657 201.050,282.799 201.050 C 283.854 201.050,284.525 200.897,284.771 200.600 C 285.017 200.305,285.686 200.150,286.722 200.150 C 287.697 200.150,288.430 199.992,288.643 199.735 C 288.839 199.499,289.773 199.264,290.813 199.189 C 292.112 199.095,292.721 198.911,292.921 198.553 C 293.109 198.218,293.589 198.050,294.352 198.050 C 295.007 198.050,295.661 197.856,295.874 197.599 C 296.119 197.304,296.789 197.149,297.824 197.149 C 298.860 197.149,299.530 196.995,299.775 196.699 C 300.014 196.412,300.677 196.249,301.612 196.249 C 302.676 196.249,303.240 196.085,303.676 195.649 C 304.127 195.198,304.676 195.049,305.890 195.049 C 306.958 195.049,307.630 194.897,307.877 194.599 C 308.092 194.339,308.747 194.149,309.424 194.149 C 310.189 194.149,310.656 193.992,310.769 193.698 C 310.893 193.375,311.399 193.248,312.563 193.248 C 313.813 193.248,314.302 193.111,314.698 192.648 C 315.100 192.179,315.583 192.048,316.914 192.048 C 318.150 192.048,318.663 191.925,318.788 191.598 C 318.915 191.267,319.437 191.148,320.756 191.148 C 321.875 191.148,322.641 191.005,322.791 190.769 C 322.923 190.560,323.436 190.254,323.931 190.087 C 325.008 189.726,325.528 185.637,324.544 185.260 C 324.240 185.143,324.081 184.694,324.081 183.951 C 324.081 183.311,323.885 182.657,323.631 182.446 C 323.333 182.198,323.181 181.526,323.181 180.455 C 323.181 179.210,323.043 178.721,322.581 178.325 C 322.123 177.933,321.980 177.440,321.980 176.249 C 321.980 175.260,321.815 174.521,321.530 174.236 C 321.283 173.989,321.080 173.331,321.080 172.775 C 321.080 171.118,318.260 170.191,317.179 171.493 M158.905 180.329 C 159.557 180.980,162.133 182.146,162.920 182.146 C 163.386 182.146,163.936 182.348,164.141 182.596 C 164.346 182.843,164.954 183.046,165.491 183.046 C 166.029 183.046,166.636 183.248,166.842 183.496 C 167.047 183.743,167.638 183.947,168.154 183.948 C 168.670 183.949,169.497 184.218,169.992 184.546 C 170.488 184.874,171.315 185.143,171.831 185.144 C 172.347 185.145,172.938 185.349,173.143 185.596 C 173.349 185.844,173.754 186.047,174.044 186.047 C 174.333 186.047,174.738 186.249,174.944 186.497 C 175.149 186.744,175.755 186.947,176.290 186.947 C 176.826 186.947,177.607 187.217,178.026 187.547 C 178.458 187.886,179.244 188.147,179.835 188.147 C 180.488 188.147,180.946 188.316,181.054 188.597 C 181.166 188.889,181.631 189.047,182.376 189.047 C 183.009 189.047,183.654 189.175,183.811 189.332 C 184.463 189.982,187.040 191.148,187.826 191.148 C 188.292 191.148,188.842 191.350,189.047 191.598 C 189.258 191.852,189.912 192.048,190.548 192.048 C 191.183 192.048,191.837 192.244,192.048 192.498 C 192.253 192.746,192.776 192.949,193.210 192.950 C 193.644 192.951,194.404 193.220,194.899 193.548 C 195.394 193.876,196.019 194.145,196.287 194.147 C 196.556 194.148,196.944 194.351,197.149 194.599 C 197.355 194.846,197.962 195.049,198.500 195.049 C 199.037 195.049,199.645 195.251,199.850 195.499 C 200.055 195.746,200.646 195.950,201.162 195.951 C 201.678 195.952,202.506 196.221,203.001 196.549 C 203.496 196.877,204.323 197.146,204.839 197.147 C 205.356 197.148,205.946 197.352,206.152 197.599 C 206.357 197.847,206.762 198.050,207.052 198.050 C 207.341 198.050,207.747 198.252,207.952 198.500 C 208.157 198.747,208.763 198.950,209.299 198.950 C 209.834 198.950,210.615 199.220,211.035 199.550 C 211.466 199.889,212.252 200.150,212.843 200.150 C 213.496 200.150,213.954 200.319,214.062 200.600 C 214.174 200.892,214.639 201.050,215.384 201.050 C 216.017 201.050,216.662 201.178,216.819 201.335 C 217.472 201.985,220.048 203.151,220.834 203.151 C 221.301 203.151,221.850 203.353,222.056 203.601 C 222.266 203.855,222.920 204.051,223.556 204.051 C 224.191 204.051,224.846 204.247,225.056 204.501 C 225.262 204.749,225.785 204.952,226.218 204.953 C 226.652 204.954,227.412 205.223,227.907 205.551 C 228.402 205.879,229.027 206.148,229.296 206.150 C 229.564 206.151,229.952 206.354,230.158 206.602 C 230.363 206.849,230.971 207.052,231.508 207.052 C 232.045 207.052,232.653 207.254,232.858 207.502 C 233.064 207.749,233.654 207.953,234.170 207.954 C 234.686 207.955,235.514 208.224,236.009 208.552 C 236.504 208.880,237.332 209.149,237.848 209.150 C 238.364 209.151,238.954 209.355,239.160 209.602 C 239.365 209.850,239.770 210.053,240.060 210.053 C 240.350 210.053,240.755 210.255,240.960 210.503 C 241.166 210.750,241.772 210.953,242.307 210.953 C 242.842 210.953,243.623 211.223,244.043 211.553 C 244.474 211.892,245.260 212.153,245.852 212.153 C 246.485 212.153,246.963 212.323,247.063 212.585 C 247.163 212.845,247.743 213.054,248.521 213.110 C 249.948 213.213,250.503 214.332,249.528 215.141 C 249.272 215.354,249.062 215.974,249.062 216.519 C 249.062 217.065,248.860 217.714,248.612 217.962 C 248.365 218.209,248.161 218.793,248.160 219.258 C 248.159 219.724,247.890 220.510,247.562 221.005 C 247.234 221.500,246.965 222.142,246.964 222.431 C 246.961 223.101,245.401 223.156,244.861 222.506 C 244.656 222.258,244.048 222.056,243.511 222.056 C 242.974 222.056,242.366 221.853,242.161 221.605 C 241.955 221.358,241.567 221.154,241.299 221.153 C 241.030 221.152,240.405 220.883,239.910 220.555 C 239.415 220.227,238.672 219.954,238.260 219.947 C 237.847 219.941,237.247 219.738,236.927 219.495 C 236.607 219.253,235.914 219.055,235.388 219.055 C 234.862 219.055,234.264 218.852,234.059 218.605 C 233.853 218.357,233.304 218.155,232.837 218.155 C 232.051 218.155,229.475 216.989,228.822 216.338 C 228.665 216.182,228.041 216.054,227.434 216.054 C 226.819 216.054,226.165 215.855,225.956 215.604 C 225.751 215.356,225.182 215.154,224.692 215.154 C 224.202 215.154,223.457 214.884,223.038 214.554 C 222.618 214.224,221.837 213.953,221.302 213.953 C 220.766 213.953,220.160 213.751,219.955 213.503 C 219.750 213.256,219.344 213.053,219.055 213.053 C 218.765 213.053,218.360 212.851,218.155 212.603 C 217.949 212.356,217.312 212.153,216.740 212.153 C 216.153 212.153,215.366 211.891,214.936 211.553 C 214.516 211.223,213.735 210.953,213.200 210.953 C 212.664 210.953,212.058 210.750,211.853 210.503 C 211.648 210.255,211.040 210.053,210.503 210.053 C 209.965 210.053,209.358 209.850,209.152 209.602 C 208.947 209.355,208.559 209.151,208.290 209.150 C 208.022 209.149,207.397 208.880,206.902 208.552 C 206.407 208.224,205.664 207.951,205.251 207.944 C 204.839 207.938,204.239 207.735,203.919 207.492 C 203.598 207.250,202.906 207.052,202.380 207.052 C 201.854 207.052,201.256 206.849,201.050 206.602 C 200.845 206.354,200.295 206.152,199.829 206.152 C 199.043 206.152,196.466 204.986,195.814 204.335 C 195.657 204.179,195.032 204.051,194.425 204.051 C 193.810 204.051,193.156 203.852,192.948 203.601 C 192.743 203.353,192.174 203.151,191.684 203.151 C 191.193 203.151,190.449 202.881,190.029 202.551 C 189.610 202.221,188.829 201.950,188.293 201.950 C 187.758 201.950,187.152 201.748,186.947 201.500 C 186.741 201.253,186.336 201.050,186.047 201.050 C 185.757 201.050,185.352 200.848,185.146 200.600 C 184.941 200.353,184.350 200.149,183.834 200.148 C 183.318 200.147,182.491 199.878,181.995 199.550 C 181.500 199.222,180.673 198.953,180.157 198.952 C 179.641 198.951,179.050 198.747,178.845 198.500 C 178.639 198.252,178.032 198.050,177.494 198.050 C 176.957 198.050,176.349 197.847,176.144 197.599 C 175.939 197.352,175.551 197.148,175.282 197.147 C 175.013 197.146,174.389 196.877,173.893 196.549 C 173.398 196.221,172.656 195.948,172.243 195.941 C 171.830 195.935,171.231 195.732,170.910 195.489 C 170.590 195.247,169.898 195.049,169.372 195.049 C 168.846 195.049,168.247 194.846,168.042 194.599 C 167.837 194.351,167.287 194.149,166.821 194.149 C 166.034 194.149,163.458 192.983,162.806 192.332 C 162.649 192.176,162.024 192.048,161.417 192.048 C 160.802 192.048,160.148 191.849,159.940 191.598 C 159.735 191.350,159.155 191.148,158.652 191.148 C 158.148 191.148,157.485 190.920,157.177 190.641 C 156.869 190.363,156.049 190.059,155.353 189.966 C 153.805 189.760,153.428 188.441,154.519 187.053 C 154.860 186.620,155.139 185.828,155.139 185.293 C 155.139 184.757,155.341 184.151,155.589 183.946 C 155.836 183.741,156.039 183.335,156.039 183.046 C 156.039 182.756,156.242 182.351,156.489 182.146 C 156.737 181.940,156.939 181.545,156.939 181.269 C 156.939 180.270,158.228 179.654,158.905 180.329 M257.239 189.513 C 256.538 190.260,255.964 191.136,255.964 191.459 C 255.964 191.864,255.760 192.048,255.310 192.048 C 254.522 192.048,252.063 194.579,252.063 195.390 C 252.063 195.755,251.848 195.949,251.443 195.949 C 250.375 195.949,247.862 198.805,247.862 200.020 C 247.862 201.365,248.743 202.251,250.080 202.251 C 250.709 202.251,251.165 202.423,251.271 202.701 C 251.399 203.032,251.923 203.151,253.263 203.151 C 254.604 203.151,255.128 203.269,255.255 203.601 C 255.381 203.928,255.894 204.051,257.130 204.051 C 258.460 204.051,258.943 204.182,259.345 204.651 C 259.671 205.032,260.230 205.251,260.876 205.251 C 261.435 205.251,262.060 205.454,262.266 205.701 C 262.713 206.241,264.103 206.294,264.606 205.791 C 265.130 205.268,265.064 202.706,264.516 202.251 C 264.221 202.005,264.066 201.336,264.066 200.300 C 264.066 199.264,263.912 198.595,263.616 198.350 C 263.318 198.102,263.166 197.431,263.166 196.365 C 263.166 195.079,263.045 194.678,262.566 194.379 C 262.117 194.099,261.965 193.679,261.965 192.717 C 261.965 191.849,261.819 191.373,261.515 191.256 C 261.228 191.146,261.065 190.684,261.065 189.975 C 261.065 187.653,259.198 187.427,257.239 189.513 " stroke="none" fill="#e4e4e4" fill-rule="evenodd"></path><path id="path1" d="M240.060 122.581 C 239.795 122.900,239.093 123.031,237.644 123.031 C 236.229 123.031,235.464 123.169,235.152 123.481 C 234.904 123.728,234.508 123.931,234.270 123.931 C 234.033 123.931,233.496 124.201,233.076 124.531 C 232.657 124.861,232.115 125.131,231.872 125.131 C 231.630 125.131,231.263 125.334,231.058 125.581 C 230.852 125.829,230.440 126.032,230.142 126.032 C 229.844 126.032,229.398 126.234,229.150 126.482 C 228.903 126.729,228.488 126.932,228.229 126.932 C 227.970 126.932,227.236 127.404,226.596 127.982 C 225.957 128.560,225.210 129.032,224.937 129.032 C 224.665 129.032,224.302 129.404,224.132 129.857 C 223.961 130.311,223.236 131.290,222.520 132.033 C 221.805 132.776,221.119 133.715,220.998 134.120 C 220.876 134.524,220.591 135.040,220.366 135.266 C 220.140 135.492,219.955 135.921,219.955 136.219 C 219.955 136.517,219.752 136.929,219.505 137.134 C 219.257 137.340,219.055 137.745,219.055 138.035 C 219.055 138.324,218.865 138.718,218.634 138.910 C 218.403 139.102,218.126 139.608,218.019 140.034 C 217.912 140.459,217.629 141.004,217.390 141.243 C 217.094 141.538,216.954 142.336,216.954 143.721 C 216.954 145.170,216.824 145.871,216.504 146.137 C 216.151 146.430,216.054 147.268,216.054 150.038 C 216.054 152.807,216.151 153.645,216.504 153.938 C 216.817 154.198,216.960 154.919,216.974 156.301 C 216.991 157.936,217.150 158.556,217.873 159.790 C 218.357 160.615,218.830 161.493,218.925 161.740 C 219.020 161.988,219.224 162.393,219.378 162.641 C 219.533 162.888,219.737 163.293,219.833 163.541 C 220.466 165.171,221.601 167.174,222.223 167.759 C 222.626 168.137,222.956 168.652,222.956 168.903 C 222.956 169.519,224.449 171.043,225.054 171.043 C 225.320 171.043,225.997 171.515,226.557 172.093 C 227.117 172.671,227.793 173.143,228.060 173.143 C 228.327 173.143,228.933 173.548,229.407 174.044 C 229.882 174.539,230.496 174.944,230.773 174.944 C 231.050 174.944,231.620 175.214,232.040 175.544 C 232.460 175.874,233.001 176.144,233.244 176.144 C 233.486 176.144,233.853 176.347,234.059 176.594 C 234.323 176.913,235.023 177.044,236.459 177.044 C 237.895 177.044,238.595 177.176,238.860 177.494 C 239.163 177.860,240.125 177.944,243.961 177.944 C 247.797 177.944,248.759 177.860,249.062 177.494 C 249.332 177.170,250.044 177.044,251.618 177.044 C 253.280 177.044,253.840 176.937,253.972 176.594 C 254.067 176.347,254.344 176.144,254.588 176.144 C 255.237 176.144,257.792 174.729,258.681 173.878 C 259.103 173.474,259.658 173.143,259.914 173.143 C 260.171 173.143,260.882 172.671,261.495 172.093 C 262.107 171.515,262.845 171.043,263.135 171.043 C 263.781 171.043,264.966 169.830,264.966 169.169 C 264.966 168.903,265.439 168.184,266.017 167.571 C 266.594 166.959,267.067 166.223,267.067 165.936 C 267.067 165.649,267.269 165.247,267.517 165.041 C 267.764 164.836,267.967 164.431,267.967 164.141 C 267.967 163.851,268.156 163.457,268.388 163.265 C 268.619 163.073,268.896 162.568,269.003 162.142 C 269.109 161.716,269.393 161.172,269.632 160.933 C 269.872 160.693,270.068 160.253,270.068 159.955 C 270.068 159.657,270.270 159.245,270.518 159.040 C 270.809 158.798,270.968 158.132,270.968 157.151 C 270.968 156.129,271.139 155.447,271.493 155.056 C 271.943 154.558,272.018 153.843,272.018 150.038 C 272.018 146.232,271.943 145.517,271.493 145.019 C 271.139 144.628,270.968 143.946,270.968 142.924 C 270.968 141.943,270.809 141.277,270.518 141.035 C 270.270 140.830,270.068 140.425,270.068 140.135 C 270.068 139.845,269.874 139.447,269.637 139.251 C 269.400 139.054,269.121 138.507,269.017 138.035 C 268.914 137.562,268.635 137.015,268.398 136.818 C 268.161 136.622,267.967 136.224,267.967 135.934 C 267.967 135.644,267.764 135.239,267.517 135.034 C 267.269 134.828,267.067 134.457,267.067 134.208 C 267.067 133.960,266.594 133.233,266.017 132.594 C 265.439 131.954,264.966 131.185,264.966 130.884 C 264.966 130.181,263.749 129.034,262.996 129.027 C 262.677 129.024,262.078 128.666,261.665 128.231 C 261.253 127.796,260.510 127.256,260.015 127.031 C 259.097 126.614,258.676 126.394,257.614 125.777 C 257.284 125.585,256.812 125.349,256.564 125.253 C 255.368 124.789,252.932 123.524,252.789 123.292 C 252.700 123.148,251.707 123.031,250.582 123.031 C 249.129 123.031,248.427 122.900,248.162 122.581 C 247.867 122.225,247.014 122.131,244.111 122.131 C 241.208 122.131,240.355 122.225,240.060 122.581 M245.911 130.533 C 246.581 130.976,247.321 131.129,248.800 131.131 C 250.200 131.132,250.900 131.266,251.163 131.583 C 251.368 131.830,251.773 132.033,252.063 132.033 C 252.353 132.033,252.758 132.236,252.963 132.483 C 253.169 132.731,253.522 132.933,253.749 132.933 C 253.976 132.933,254.685 133.406,255.324 133.983 C 255.964 134.561,256.686 135.034,256.929 135.034 C 257.576 135.034,258.965 136.319,258.965 136.918 C 258.965 137.201,259.437 137.956,260.015 138.595 C 260.593 139.235,261.065 139.961,261.065 140.210 C 261.065 140.458,261.268 140.830,261.515 141.035 C 261.763 141.241,261.965 141.646,261.965 141.935 C 261.965 142.225,262.152 142.617,262.380 142.806 C 262.613 142.999,262.850 143.921,262.922 144.906 C 263.002 146.018,263.235 146.849,263.557 147.171 C 264.283 147.896,264.288 152.295,263.565 153.094 C 263.278 153.412,263.006 154.346,262.928 155.287 C 262.854 156.189,262.606 157.081,262.379 157.270 C 262.152 157.458,261.965 157.850,261.965 158.140 C 261.965 158.429,261.763 158.834,261.515 159.040 C 261.268 159.245,261.062 159.633,261.058 159.902 C 261.054 160.170,260.582 160.911,260.008 161.549 C 259.434 162.186,258.965 162.920,258.965 163.180 C 258.965 163.831,257.774 165.041,257.133 165.041 C 256.844 165.041,256.106 165.514,255.493 166.092 C 254.881 166.669,254.154 167.142,253.878 167.142 C 253.602 167.142,252.987 167.547,252.513 168.042 C 251.741 168.848,251.460 168.942,249.831 168.944 C 248.521 168.946,247.760 169.113,247.112 169.542 C 245.820 170.398,242.130 170.398,241.042 169.542 C 240.450 169.076,239.825 168.942,238.246 168.942 C 236.355 168.942,236.159 168.879,235.455 168.042 C 235.038 167.547,234.487 167.142,234.229 167.142 C 233.971 167.142,233.237 166.669,232.598 166.092 C 231.958 165.514,231.256 165.041,231.038 165.041 C 230.484 165.041,228.957 163.525,228.957 162.976 C 228.957 162.727,228.627 162.178,228.223 161.757 C 227.400 160.898,225.956 158.320,225.956 157.710 C 225.956 157.492,225.754 157.145,225.506 156.939 C 225.188 156.675,225.056 155.974,225.056 154.539 C 225.056 153.103,224.925 152.403,224.606 152.138 C 224.301 151.885,224.156 151.207,224.156 150.038 C 224.156 148.869,224.301 148.190,224.606 147.937 C 224.925 147.672,225.056 146.972,225.056 145.536 C 225.056 144.101,225.188 143.400,225.506 143.136 C 225.754 142.930,225.956 142.529,225.956 142.245 C 225.956 141.960,226.227 141.416,226.557 141.035 C 226.887 140.655,227.157 140.121,227.157 139.850 C 227.157 139.579,227.713 138.823,228.392 138.170 C 229.071 137.518,229.816 136.545,230.046 136.009 C 230.277 135.473,230.684 135.034,230.950 135.034 C 231.217 135.034,231.958 134.561,232.598 133.983 C 233.237 133.406,234.013 132.933,234.323 132.933 C 234.632 132.933,235.053 132.731,235.259 132.483 C 235.464 132.236,235.869 132.033,236.159 132.033 C 236.449 132.033,236.854 131.830,237.059 131.583 C 237.321 131.268,238.015 131.133,239.374 131.133 C 240.861 131.133,241.494 130.992,242.079 130.533 C 243.059 129.762,244.747 129.762,245.911 130.533 M163.301 165.401 C 163.103 165.599,162.941 165.988,162.941 166.265 C 162.941 166.542,162.738 166.936,162.491 167.142 C 162.243 167.347,162.041 167.752,162.041 168.042 C 162.041 168.332,161.838 168.737,161.590 168.942 C 161.343 169.148,161.140 169.754,161.140 170.289 C 161.140 170.824,160.862 171.616,160.521 172.049 C 159.429 173.437,159.807 174.756,161.355 174.962 C 162.050 175.055,162.871 175.359,163.179 175.638 C 163.486 175.916,164.150 176.144,164.653 176.144 C 165.156 176.144,165.736 176.347,165.941 176.594 C 166.150 176.845,166.804 177.044,167.419 177.044 C 168.026 177.044,168.650 177.172,168.807 177.329 C 169.460 177.979,172.036 179.145,172.822 179.145 C 173.289 179.145,173.838 179.347,174.044 179.595 C 174.249 179.842,174.847 180.045,175.373 180.045 C 175.899 180.045,176.592 180.243,176.912 180.486 C 177.232 180.728,177.832 180.931,178.245 180.938 C 178.657 180.944,179.400 181.217,179.895 181.545 C 180.390 181.873,181.015 182.142,181.284 182.144 C 181.552 182.145,181.940 182.348,182.146 182.596 C 182.351 182.843,182.959 183.046,183.496 183.046 C 184.033 183.046,184.641 183.248,184.846 183.496 C 185.052 183.743,185.642 183.947,186.158 183.948 C 186.674 183.949,187.502 184.218,187.997 184.546 C 188.492 184.874,189.320 185.143,189.836 185.144 C 190.352 185.145,190.942 185.349,191.148 185.596 C 191.353 185.844,191.758 186.047,192.048 186.047 C 192.338 186.047,192.743 186.249,192.948 186.497 C 193.154 186.744,193.760 186.947,194.295 186.947 C 194.830 186.947,195.611 187.217,196.031 187.547 C 196.451 187.877,197.195 188.147,197.685 188.147 C 198.175 188.147,198.744 188.350,198.950 188.597 C 199.158 188.848,199.812 189.047,200.427 189.047 C 201.034 189.047,201.659 189.175,201.815 189.332 C 202.468 189.982,205.044 191.148,205.831 191.148 C 206.297 191.148,206.846 191.350,207.052 191.598 C 207.257 191.845,207.856 192.048,208.381 192.048 C 208.907 192.048,209.600 192.246,209.920 192.489 C 210.241 192.731,210.840 192.934,211.253 192.941 C 211.665 192.947,212.408 193.220,212.903 193.548 C 213.398 193.876,214.023 194.145,214.292 194.147 C 214.560 194.148,214.948 194.351,215.154 194.599 C 215.359 194.846,215.967 195.049,216.504 195.049 C 217.041 195.049,217.649 195.251,217.854 195.499 C 218.060 195.746,218.666 195.949,219.201 195.949 C 219.736 195.949,220.517 196.219,220.937 196.549 C 221.367 196.887,222.154 197.149,222.741 197.149 C 223.314 197.149,223.951 197.352,224.156 197.599 C 224.361 197.847,224.767 198.050,225.056 198.050 C 225.346 198.050,225.751 198.252,225.956 198.500 C 226.162 198.747,226.768 198.950,227.303 198.950 C 227.838 198.950,228.619 199.220,229.039 199.550 C 229.459 199.880,230.203 200.150,230.693 200.150 C 231.183 200.150,231.753 200.353,231.958 200.600 C 232.166 200.851,232.820 201.050,233.435 201.050 C 234.042 201.050,234.667 201.178,234.824 201.335 C 235.708 202.217,238.101 203.151,239.476 203.151 L 240.960 203.151 240.960 201.050 C 240.960 199.368,241.051 198.950,241.418 198.950 C 241.684 198.950,241.949 198.581,242.052 198.065 C 242.150 197.579,242.615 196.802,243.087 196.340 C 244.062 195.383,244.259 194.150,243.436 194.147 C 243.147 194.145,242.506 193.876,242.011 193.548 C 241.515 193.220,240.688 192.951,240.172 192.950 C 239.656 192.949,239.065 192.746,238.860 192.498 C 238.654 192.251,238.047 192.048,237.509 192.048 C 236.972 192.048,236.364 191.845,236.159 191.598 C 235.954 191.350,235.566 191.147,235.297 191.146 C 235.028 191.145,234.404 190.876,233.908 190.548 C 233.413 190.220,232.653 189.951,232.220 189.949 C 231.786 189.948,231.263 189.745,231.058 189.497 C 230.847 189.244,230.193 189.047,229.557 189.047 C 228.922 189.047,228.268 188.851,228.057 188.597 C 227.852 188.350,227.302 188.147,226.836 188.147 C 226.049 188.147,223.473 186.982,222.821 186.331 C 222.664 186.174,222.018 186.047,221.386 186.047 C 220.641 186.047,220.175 185.888,220.064 185.596 C 219.956 185.315,219.498 185.146,218.845 185.146 C 218.253 185.146,217.468 184.886,217.036 184.546 C 216.616 184.216,215.835 183.946,215.300 183.946 C 214.765 183.946,214.159 183.743,213.953 183.496 C 213.748 183.248,213.343 183.046,213.053 183.046 C 212.764 183.046,212.358 182.843,212.153 182.596 C 211.948 182.348,211.357 182.145,210.841 182.144 C 210.325 182.142,209.497 181.873,209.002 181.545 C 208.507 181.217,207.680 180.948,207.164 180.947 C 206.647 180.946,206.057 180.743,205.851 180.495 C 205.646 180.248,205.038 180.045,204.501 180.045 C 203.964 180.045,203.356 179.842,203.151 179.595 C 202.945 179.347,202.557 179.144,202.289 179.143 C 202.020 179.142,201.395 178.873,200.900 178.545 C 200.405 178.217,199.645 177.948,199.212 177.946 C 198.778 177.945,198.255 177.742,198.050 177.494 C 197.839 177.241,197.185 177.044,196.549 177.044 C 195.914 177.044,195.259 176.848,195.049 176.594 C 194.843 176.347,194.294 176.144,193.828 176.144 C 193.041 176.144,190.465 174.979,189.812 174.328 C 189.656 174.171,189.010 174.044,188.378 174.044 C 187.633 174.044,187.167 173.885,187.055 173.593 C 186.947 173.312,186.490 173.143,185.837 173.143 C 185.245 173.143,184.459 172.883,184.028 172.543 C 183.608 172.213,182.827 171.943,182.292 171.943 C 181.757 171.943,181.151 171.740,180.945 171.493 C 180.740 171.245,180.335 171.043,180.045 171.043 C 179.755 171.043,179.350 170.840,179.145 170.593 C 178.939 170.345,178.349 170.142,177.833 170.141 C 177.317 170.139,176.489 169.870,175.994 169.542 C 175.499 169.214,174.671 168.945,174.155 168.944 C 173.639 168.943,173.049 168.740,172.843 168.492 C 172.638 168.245,172.030 168.042,171.493 168.042 C 170.956 168.042,170.348 167.839,170.143 167.592 C 169.937 167.344,169.388 167.142,168.921 167.142 C 168.135 167.142,165.559 165.976,164.906 165.326 C 164.512 164.933,163.733 164.970,163.301 165.401 M332.183 167.592 C 331.972 167.846,331.318 168.042,330.683 168.042 C 330.047 168.042,329.393 168.238,329.182 168.492 C 328.935 168.790,328.264 168.942,327.198 168.942 C 325.911 168.942,325.511 169.063,325.212 169.542 C 325.006 169.872,324.559 170.143,324.219 170.143 C 322.812 170.143,322.231 173.033,323.481 173.813 C 323.969 174.118,324.081 174.513,324.081 175.926 C 324.081 177.193,324.203 177.710,324.531 177.836 C 324.823 177.948,324.981 178.413,324.981 179.155 C 324.981 179.786,325.184 180.505,325.431 180.752 C 325.713 181.034,325.881 181.772,325.881 182.724 C 325.881 183.846,326.039 184.404,326.482 184.846 C 326.839 185.204,327.082 185.846,327.082 186.437 C 327.082 187.949,327.483 188.147,330.556 188.147 C 332.638 188.147,333.401 188.037,333.683 187.697 C 333.889 187.449,334.513 187.247,335.071 187.247 C 335.684 187.247,336.321 187.010,336.684 186.647 C 337.136 186.195,337.684 186.047,338.898 186.047 C 339.966 186.047,340.638 185.894,340.885 185.596 C 341.091 185.349,341.485 185.146,341.762 185.146 C 342.908 185.146,343.575 182.653,342.536 182.254 C 342.244 182.142,342.086 181.677,342.086 180.935 C 342.086 180.304,341.883 179.585,341.635 179.338 C 341.353 179.056,341.185 178.318,341.185 177.363 C 341.185 176.209,341.039 175.713,340.585 175.324 C 340.113 174.920,339.985 174.439,339.985 173.067 C 339.985 171.795,339.864 171.277,339.535 171.151 C 339.247 171.041,339.085 170.578,339.085 169.866 C 339.085 167.907,337.932 167.142,334.979 167.142 C 333.192 167.142,332.459 167.260,332.183 167.592 M157.299 180.405 C 157.101 180.603,156.939 180.992,156.939 181.269 C 156.939 181.545,156.737 181.940,156.489 182.146 C 156.242 182.351,156.039 182.756,156.039 183.046 C 156.039 183.335,155.836 183.741,155.589 183.946 C 155.341 184.151,155.139 184.757,155.139 185.293 C 155.139 185.828,154.860 186.620,154.519 187.053 C 153.428 188.441,153.805 189.760,155.353 189.966 C 156.049 190.059,156.869 190.363,157.177 190.641 C 157.485 190.920,158.148 191.148,158.652 191.148 C 159.155 191.148,159.735 191.350,159.940 191.598 C 160.148 191.849,160.802 192.048,161.417 192.048 C 162.024 192.048,162.649 192.176,162.806 192.332 C 163.458 192.983,166.034 194.149,166.821 194.149 C 167.287 194.149,167.837 194.351,168.042 194.599 C 168.247 194.846,168.846 195.049,169.372 195.049 C 169.898 195.049,170.590 195.247,170.910 195.489 C 171.231 195.732,171.830 195.935,172.243 195.941 C 172.656 195.948,173.398 196.221,173.893 196.549 C 174.389 196.877,175.013 197.146,175.282 197.147 C 175.551 197.148,175.939 197.352,176.144 197.599 C 176.349 197.847,176.957 198.050,177.494 198.050 C 178.032 198.050,178.639 198.252,178.845 198.500 C 179.050 198.747,179.641 198.951,180.157 198.952 C 180.673 198.953,181.500 199.222,181.995 199.550 C 182.491 199.878,183.318 200.147,183.834 200.148 C 184.350 200.149,184.941 200.353,185.146 200.600 C 185.352 200.848,185.757 201.050,186.047 201.050 C 186.336 201.050,186.741 201.253,186.947 201.500 C 187.152 201.748,187.758 201.950,188.293 201.950 C 188.829 201.950,189.610 202.221,190.029 202.551 C 190.449 202.881,191.193 203.151,191.684 203.151 C 192.174 203.151,192.743 203.353,192.948 203.601 C 193.156 203.852,193.810 204.051,194.425 204.051 C 195.032 204.051,195.657 204.179,195.814 204.335 C 196.466 204.986,199.043 206.152,199.829 206.152 C 200.295 206.152,200.845 206.354,201.050 206.602 C 201.256 206.849,201.854 207.052,202.380 207.052 C 202.906 207.052,203.598 207.250,203.919 207.492 C 204.239 207.735,204.839 207.938,205.251 207.944 C 205.664 207.951,206.407 208.224,206.902 208.552 C 207.397 208.880,208.022 209.149,208.290 209.150 C 208.559 209.151,208.947 209.355,209.152 209.602 C 209.358 209.850,209.965 210.053,210.503 210.053 C 211.040 210.053,211.648 210.255,211.853 210.503 C 212.058 210.750,212.664 210.953,213.200 210.953 C 213.735 210.953,214.516 211.223,214.936 211.553 C 215.366 211.891,216.153 212.153,216.740 212.153 C 217.312 212.153,217.949 212.356,218.155 212.603 C 218.360 212.851,218.765 213.053,219.055 213.053 C 219.344 213.053,219.750 213.256,219.955 213.503 C 220.160 213.751,220.766 213.953,221.302 213.953 C 221.837 213.953,222.618 214.224,223.038 214.554 C 223.457 214.884,224.202 215.154,224.692 215.154 C 225.182 215.154,225.751 215.356,225.956 215.604 C 226.165 215.855,226.819 216.054,227.434 216.054 C 228.041 216.054,228.665 216.182,228.822 216.338 C 229.475 216.989,232.051 218.155,232.837 218.155 C 233.304 218.155,233.853 218.357,234.059 218.605 C 234.264 218.852,234.862 219.055,235.388 219.055 C 235.914 219.055,236.607 219.253,236.927 219.495 C 237.247 219.738,237.847 219.941,238.260 219.947 C 238.672 219.954,239.415 220.227,239.910 220.555 C 240.405 220.883,241.030 221.152,241.299 221.153 C 241.567 221.154,241.955 221.358,242.161 221.605 C 242.366 221.853,242.974 222.056,243.511 222.056 C 244.048 222.056,244.656 222.258,244.861 222.506 C 245.401 223.156,246.961 223.101,246.964 222.431 C 246.965 222.142,247.234 221.500,247.562 221.005 C 247.890 220.510,248.159 219.724,248.160 219.258 C 248.161 218.793,248.365 218.209,248.612 217.962 C 248.860 217.714,249.062 217.065,249.062 216.519 C 249.062 215.974,249.272 215.354,249.528 215.141 C 250.503 214.332,249.948 213.213,248.521 213.110 C 247.743 213.054,247.163 212.845,247.063 212.585 C 246.963 212.323,246.485 212.153,245.852 212.153 C 245.260 212.153,244.474 211.892,244.043 211.553 C 243.623 211.223,242.842 210.953,242.307 210.953 C 241.772 210.953,241.166 210.750,240.960 210.503 C 240.755 210.255,240.350 210.053,240.060 210.053 C 239.770 210.053,239.365 209.850,239.160 209.602 C 238.954 209.355,238.364 209.151,237.848 209.150 C 237.332 209.149,236.504 208.880,236.009 208.552 C 235.514 208.224,234.686 207.955,234.170 207.954 C 233.654 207.953,233.064 207.749,232.858 207.502 C 232.653 207.254,232.045 207.052,231.508 207.052 C 230.971 207.052,230.363 206.849,230.158 206.602 C 229.952 206.354,229.564 206.151,229.296 206.150 C 229.027 206.148,228.402 205.879,227.907 205.551 C 227.412 205.223,226.652 204.954,226.218 204.953 C 225.785 204.952,225.262 204.749,225.056 204.501 C 224.846 204.247,224.191 204.051,223.556 204.051 C 222.920 204.051,222.266 203.855,222.056 203.601 C 221.850 203.353,221.301 203.151,220.834 203.151 C 220.048 203.151,217.472 201.985,216.819 201.335 C 216.662 201.178,216.017 201.050,215.384 201.050 C 214.639 201.050,214.174 200.892,214.062 200.600 C 213.954 200.319,213.496 200.150,212.843 200.150 C 212.252 200.150,211.466 199.889,211.035 199.550 C 210.615 199.220,209.834 198.950,209.299 198.950 C 208.763 198.950,208.157 198.747,207.952 198.500 C 207.747 198.252,207.341 198.050,207.052 198.050 C 206.762 198.050,206.357 197.847,206.152 197.599 C 205.946 197.352,205.356 197.148,204.839 197.147 C 204.323 197.146,203.496 196.877,203.001 196.549 C 202.506 196.221,201.678 195.952,201.162 195.951 C 200.646 195.950,200.055 195.746,199.850 195.499 C 199.645 195.251,199.037 195.049,198.500 195.049 C 197.962 195.049,197.355 194.846,197.149 194.599 C 196.944 194.351,196.556 194.148,196.287 194.147 C 196.019 194.145,195.394 193.876,194.899 193.548 C 194.404 193.220,193.644 192.951,193.210 192.950 C 192.776 192.949,192.253 192.746,192.048 192.498 C 191.837 192.244,191.183 192.048,190.548 192.048 C 189.912 192.048,189.258 191.852,189.047 191.598 C 188.842 191.350,188.292 191.148,187.826 191.148 C 187.040 191.148,184.463 189.982,183.811 189.332 C 183.654 189.175,183.009 189.047,182.376 189.047 C 181.631 189.047,181.166 188.889,181.054 188.597 C 180.946 188.316,180.488 188.147,179.835 188.147 C 179.244 188.147,178.458 187.886,178.026 187.547 C 177.607 187.217,176.826 186.947,176.290 186.947 C 175.755 186.947,175.149 186.744,174.944 186.497 C 174.738 186.249,174.333 186.047,174.044 186.047 C 173.754 186.047,173.349 185.844,173.143 185.596 C 172.938 185.349,172.347 185.145,171.831 185.144 C 171.315 185.143,170.488 184.874,169.992 184.546 C 169.497 184.218,168.670 183.949,168.154 183.948 C 167.638 183.947,167.047 183.743,166.842 183.496 C 166.636 183.248,166.029 183.046,165.491 183.046 C 164.954 183.046,164.346 182.843,164.141 182.596 C 163.936 182.348,163.386 182.146,162.920 182.146 C 162.133 182.146,159.557 180.980,158.905 180.329 C 158.511 179.937,157.731 179.973,157.299 180.405 " stroke="none" fill="#e40484" fill-rule="evenodd"></path><path id="path2" d="M93.323 43.511 C 92.840 43.995,92.323 44.111,90.659 44.111 C 89.191 44.111,88.488 44.241,88.222 44.561 C 88.007 44.821,87.352 45.011,86.676 45.011 C 85.910 45.011,85.443 45.167,85.330 45.461 C 85.217 45.755,84.750 45.911,83.986 45.911 C 83.186 45.911,82.652 46.102,82.301 46.512 C 81.961 46.909,81.416 47.112,80.690 47.112 C 80.081 47.112,79.427 47.312,79.220 47.562 C 79.014 47.809,78.602 48.012,78.304 48.012 C 78.006 48.012,77.560 48.215,77.312 48.462 C 77.065 48.710,76.645 48.912,76.381 48.912 C 76.116 48.912,75.426 49.385,74.849 49.962 C 74.271 50.540,73.547 51.013,73.239 51.013 C 72.932 51.013,72.265 51.485,71.758 52.063 C 71.251 52.641,70.584 53.113,70.277 53.113 C 69.574 53.113,59.168 63.448,58.935 64.377 C 58.842 64.748,58.372 65.428,57.890 65.890 C 57.408 66.351,57.014 66.969,57.014 67.263 C 57.014 67.557,56.542 68.270,55.964 68.847 C 55.386 69.425,54.914 70.156,54.914 70.471 C 54.914 70.786,54.711 71.212,54.464 71.418 C 54.216 71.623,54.014 71.990,54.014 72.232 C 54.014 72.475,53.743 73.017,53.413 73.436 C 53.083 73.856,52.813 74.596,52.813 75.081 C 52.813 75.565,52.611 76.164,52.363 76.412 C 52.116 76.660,51.913 77.378,51.913 78.009 C 51.913 78.751,51.754 79.216,51.463 79.328 C 51.169 79.441,51.013 79.908,51.013 80.674 C 51.013 81.351,50.822 82.005,50.563 82.221 C 50.242 82.486,50.113 83.190,50.113 84.658 C 50.113 86.322,49.996 86.838,49.512 87.322 C 48.944 87.891,48.912 88.322,48.912 95.574 C 48.912 102.826,48.944 103.257,49.512 103.826 C 49.999 104.312,50.113 104.826,50.113 106.536 C 50.113 108.135,50.222 108.688,50.563 108.819 C 50.854 108.931,51.013 109.396,51.013 110.138 C 51.013 110.769,51.215 111.488,51.463 111.735 C 51.710 111.983,51.913 112.658,51.913 113.235 C 51.913 113.813,52.116 114.488,52.363 114.736 C 52.611 114.983,52.813 115.601,52.813 116.108 C 52.813 116.629,53.074 117.290,53.413 117.629 C 53.743 117.959,54.014 118.483,54.014 118.793 C 54.014 119.103,54.216 119.524,54.464 119.730 C 54.711 119.935,54.914 120.366,54.914 120.687 C 54.914 121.008,55.386 121.716,55.964 122.261 C 56.542 122.806,57.014 123.506,57.014 123.817 C 57.014 124.128,57.404 124.751,57.880 125.200 C 58.356 125.650,58.827 126.339,58.925 126.731 C 59.170 127.707,69.557 138.035,70.293 138.035 C 70.610 138.035,71.287 138.507,71.799 139.085 C 72.310 139.662,72.993 140.135,73.316 140.135 C 73.639 140.135,74.279 140.528,74.737 141.007 C 75.196 141.487,75.879 141.978,76.256 142.097 C 76.633 142.217,77.126 142.499,77.352 142.725 C 77.578 142.951,78.076 143.136,78.459 143.136 C 78.842 143.136,79.233 143.338,79.328 143.586 C 79.442 143.882,79.911 144.036,80.696 144.036 C 81.470 144.036,81.984 144.202,82.155 144.508 C 82.303 144.773,82.998 145.055,83.745 145.152 C 84.474 145.247,85.179 145.507,85.311 145.730 C 85.454 145.973,86.077 146.137,86.855 146.137 C 87.736 146.137,88.214 146.282,88.331 146.587 C 88.463 146.931,89.030 147.037,90.748 147.037 C 92.575 147.037,93.048 147.135,93.287 147.562 C 93.556 148.042,94.274 148.087,101.575 148.087 C 108.877 148.087,109.595 148.042,109.863 147.562 C 110.103 147.135,110.576 147.037,112.402 147.037 C 114.121 147.037,114.688 146.931,114.820 146.587 C 114.932 146.295,115.397 146.137,116.140 146.137 C 116.770 146.137,117.489 145.934,117.737 145.686 C 117.984 145.439,118.601 145.236,119.108 145.236 C 119.630 145.236,120.291 144.976,120.630 144.636 C 121.032 144.235,121.630 144.036,122.440 144.036 C 123.239 144.036,123.708 143.883,123.822 143.586 C 123.917 143.338,124.302 143.136,124.677 143.136 C 125.051 143.136,125.515 142.946,125.707 142.715 C 125.899 142.484,126.402 142.208,126.825 142.102 C 127.247 141.995,127.929 141.510,128.339 141.022 C 128.750 140.534,129.378 140.135,129.736 140.135 C 130.112 140.135,130.755 139.692,131.262 139.085 C 131.743 138.507,132.398 138.035,132.717 138.035 C 133.419 138.035,144.036 127.521,144.036 126.826 C 144.036 126.565,144.509 125.879,145.086 125.301 C 145.664 124.724,146.137 123.988,146.137 123.668 C 146.137 123.347,146.525 122.757,147.001 122.357 C 147.476 121.957,147.967 121.304,148.091 120.905 C 148.216 120.506,148.502 119.914,148.728 119.588 C 148.953 119.263,149.137 118.814,149.137 118.591 C 149.137 118.369,149.340 117.984,149.587 117.737 C 149.835 117.489,150.038 116.823,150.038 116.258 C 150.038 115.629,150.271 114.995,150.638 114.629 C 150.977 114.289,151.238 113.628,151.238 113.107 C 151.238 112.600,151.440 111.983,151.688 111.735 C 151.935 111.488,152.138 110.812,152.138 110.235 C 152.138 109.657,152.341 108.982,152.588 108.734 C 152.901 108.421,153.038 107.655,153.038 106.220 C 153.038 104.566,153.143 104.097,153.563 103.862 C 154.043 103.594,154.089 102.875,154.089 95.574 C 154.089 88.272,154.043 87.554,153.563 87.286 C 153.136 87.047,153.038 86.573,153.038 84.747 C 153.038 83.028,152.933 82.461,152.588 82.329 C 152.297 82.217,152.138 81.752,152.138 81.010 C 152.138 80.379,151.958 79.682,151.737 79.462 C 151.516 79.241,151.256 78.466,151.158 77.739 C 151.059 77.001,150.773 76.301,150.509 76.153 C 150.203 75.982,150.038 75.469,150.038 74.694 C 150.038 73.909,149.883 73.440,149.587 73.327 C 149.340 73.232,149.137 72.847,149.137 72.473 C 149.137 72.098,148.943 71.631,148.706 71.434 C 148.470 71.237,148.193 70.701,148.093 70.243 C 147.992 69.785,147.511 69.115,147.023 68.755 C 146.535 68.394,146.137 67.829,146.137 67.498 C 146.137 67.167,145.664 66.424,145.086 65.846 C 144.509 65.269,144.036 64.545,144.036 64.237 C 144.036 63.930,143.563 63.263,142.986 62.756 C 142.408 62.249,141.926 61.728,141.914 61.600 C 141.902 61.471,141.236 60.825,140.435 60.165 C 139.634 59.505,138.959 58.830,138.935 58.665 C 138.911 58.500,138.236 57.824,137.434 57.164 C 136.633 56.504,135.968 55.868,135.956 55.750 C 135.909 55.285,133.351 53.128,132.838 53.121 C 132.538 53.117,131.847 52.641,131.302 52.063 C 130.757 51.485,130.046 51.013,129.720 51.013 C 129.395 51.013,128.699 50.540,128.173 49.962 C 127.647 49.385,126.967 48.912,126.661 48.912 C 126.355 48.912,125.937 48.710,125.731 48.462 C 125.526 48.215,125.051 48.012,124.677 48.012 C 124.302 48.012,123.917 47.809,123.822 47.562 C 123.704 47.253,123.222 47.112,122.290 47.112 C 121.328 47.112,120.930 46.990,120.930 46.694 C 120.930 46.174,120.278 45.911,118.987 45.911 C 118.381 45.911,117.926 45.736,117.821 45.461 C 117.703 45.155,117.224 45.011,116.321 45.011 C 115.417 45.011,114.938 44.867,114.820 44.561 C 114.688 44.218,114.127 44.111,112.454 44.111 C 110.632 44.111,110.174 44.009,109.747 43.511 C 109.258 42.940,108.862 42.911,101.578 42.911 C 94.324 42.911,93.892 42.942,93.323 43.511 M144.336 146.587 C 144.125 146.841,143.471 147.037,142.836 147.037 C 142.200 147.037,141.546 147.233,141.335 147.487 C 141.098 147.772,140.436 147.937,139.523 147.937 C 137.802 147.937,137.134 148.156,137.134 148.719 C 137.134 149.029,136.678 149.137,135.371 149.137 C 134.169 149.137,133.488 149.281,133.233 149.587 C 132.988 149.883,132.318 150.038,131.283 150.038 C 130.247 150.038,129.578 150.192,129.332 150.488 C 129.127 150.735,128.503 150.938,127.945 150.938 C 127.332 150.938,126.695 151.175,126.332 151.538 C 125.876 151.993,125.331 152.138,124.072 152.138 C 122.873 152.138,122.364 152.263,122.239 152.588 C 122.112 152.918,121.592 153.038,120.289 153.038 C 118.985 153.038,118.465 153.158,118.338 153.488 C 118.214 153.811,117.709 153.938,116.547 153.938 C 115.329 153.938,114.780 154.087,114.329 154.539 C 113.965 154.902,113.328 155.139,112.715 155.139 C 112.157 155.139,111.533 155.341,111.328 155.589 C 111.073 155.896,110.391 156.039,109.181 156.039 C 107.882 156.039,107.362 156.159,107.235 156.489 C 107.111 156.812,106.606 156.939,105.441 156.939 C 104.191 156.939,103.702 157.077,103.306 157.539 C 102.916 157.995,102.421 158.140,101.245 158.140 C 100.236 158.140,99.568 158.296,99.325 158.590 C 99.114 158.844,98.460 159.040,97.824 159.040 C 97.189 159.040,96.535 159.236,96.324 159.490 C 96.077 159.788,95.405 159.940,94.339 159.940 C 93.053 159.940,92.653 160.061,92.353 160.540 C 92.051 161.025,91.654 161.140,90.287 161.140 C 89.150 161.140,88.473 161.288,88.222 161.590 C 88.007 161.850,87.352 162.041,86.676 162.041 C 85.910 162.041,85.443 162.197,85.330 162.491 C 85.206 162.814,84.700 162.941,83.539 162.941 C 82.321 162.941,81.772 163.089,81.320 163.541 C 80.865 163.996,80.320 164.141,79.060 164.141 C 77.862 164.141,77.353 164.266,77.228 164.591 C 77.101 164.921,76.581 165.041,75.277 165.041 C 73.974 165.041,73.453 165.161,73.327 165.491 C 73.214 165.785,72.747 165.941,71.983 165.941 C 71.183 165.941,70.649 166.132,70.298 166.542 C 69.907 166.998,69.413 167.142,68.237 167.142 C 67.228 167.142,66.560 167.298,66.317 167.592 C 66.070 167.889,65.400 168.042,64.351 168.042 C 63.336 168.042,62.595 168.205,62.308 168.492 C 62.026 168.774,61.289 168.942,60.334 168.942 C 59.180 168.942,58.684 169.088,58.295 169.542 C 57.955 169.939,57.410 170.143,56.684 170.143 C 56.075 170.143,55.421 170.343,55.214 170.593 C 54.968 170.888,54.299 171.043,53.263 171.043 C 52.228 171.043,51.558 171.197,51.313 171.493 C 51.107 171.740,50.695 171.943,50.397 171.943 C 48.939 171.943,48.324 174.656,49.512 175.844 C 49.948 176.280,50.113 176.844,50.113 177.908 C 50.113 178.843,50.275 179.506,50.563 179.745 C 50.817 179.956,51.013 180.610,51.013 181.245 C 51.013 181.881,51.209 182.535,51.463 182.746 C 51.759 182.992,51.913 183.662,51.913 184.711 C 51.913 185.653,52.080 186.470,52.321 186.711 C 52.545 186.936,52.794 187.907,52.873 188.870 C 52.974 190.078,53.173 190.707,53.516 190.899 C 53.844 191.083,54.014 191.569,54.014 192.326 C 54.014 192.981,54.207 193.635,54.464 193.848 C 54.747 194.083,54.914 194.744,54.914 195.628 C 54.914 196.402,55.112 197.297,55.354 197.617 C 55.597 197.937,55.799 198.841,55.804 199.625 C 55.811 200.641,55.986 201.223,56.414 201.650 C 56.865 202.102,57.014 202.651,57.014 203.864 C 57.014 204.933,57.166 205.604,57.464 205.851 C 57.712 206.057,57.914 206.651,57.914 207.172 C 57.914 207.692,58.098 208.385,58.323 208.710 C 58.548 209.036,58.800 210.030,58.883 210.918 C 58.983 211.983,59.202 212.628,59.525 212.809 C 59.884 213.010,60.015 213.516,60.015 214.697 C 60.015 215.732,60.177 216.473,60.465 216.761 C 60.737 217.033,60.915 217.767,60.915 218.612 C 60.915 219.382,61.110 220.371,61.347 220.809 C 61.585 221.247,61.859 222.099,61.956 222.702 C 62.053 223.305,62.331 223.874,62.574 223.968 C 62.888 224.088,63.016 224.608,63.016 225.760 C 63.016 226.837,63.167 227.509,63.466 227.757 C 63.762 228.003,63.916 228.673,63.916 229.723 C 63.916 230.738,64.079 231.478,64.366 231.765 C 64.614 232.013,64.816 232.630,64.816 233.137 C 64.816 233.658,65.077 234.319,65.416 234.659 C 65.868 235.110,66.017 235.659,66.017 236.872 C 66.017 237.941,66.169 238.612,66.467 238.860 C 66.750 239.095,66.917 239.756,66.917 240.640 C 66.917 241.413,67.115 242.308,67.357 242.628 C 67.600 242.949,67.802 243.852,67.807 244.636 C 67.814 245.652,67.989 246.234,68.417 246.662 C 68.784 247.028,69.017 247.662,69.017 248.291 C 69.017 248.856,69.220 249.522,69.467 249.770 C 69.744 250.046,69.917 250.781,69.917 251.675 C 69.917 252.475,70.100 253.396,70.323 253.722 C 70.545 254.047,70.811 254.843,70.912 255.490 C 71.014 256.136,71.270 256.776,71.482 256.910 C 72.451 257.525,196.508 257.202,196.839 256.584 C 197.335 255.657,197.233 251.906,196.699 251.463 C 196.452 251.257,196.249 250.633,196.249 250.076 C 196.249 249.462,196.012 248.825,195.649 248.462 C 195.193 248.007,195.049 247.462,195.049 246.202 C 195.049 245.004,194.924 244.494,194.599 244.370 C 194.278 244.247,194.149 243.747,194.149 242.636 C 194.149 241.728,193.964 240.831,193.708 240.492 C 193.466 240.172,193.263 239.269,193.258 238.485 C 193.251 237.468,193.076 236.887,192.648 236.459 C 192.285 236.096,192.048 235.459,192.048 234.845 C 192.048 234.288,191.845 233.664,191.598 233.458 C 191.301 233.212,191.148 232.542,191.148 231.493 C 191.148 229.802,190.653 228.957,189.663 228.957 C 189.365 228.957,188.953 228.755,188.747 228.507 C 188.536 228.253,187.882 228.057,187.247 228.057 C 186.611 228.057,185.957 227.861,185.746 227.607 C 185.541 227.359,184.917 227.157,184.359 227.157 C 183.746 227.157,183.109 226.920,182.746 226.557 C 182.382 226.193,181.745 225.956,181.132 225.956 C 180.575 225.956,179.950 225.754,179.745 225.506 C 179.534 225.253,178.880 225.056,178.245 225.056 C 177.609 225.056,176.955 224.860,176.744 224.606 C 176.539 224.359,176.082 224.156,175.729 224.156 C 175.377 224.156,174.919 223.886,174.713 223.556 C 174.452 223.138,174.014 222.956,173.269 222.956 C 172.681 222.956,171.998 222.753,171.750 222.506 C 171.503 222.258,170.784 222.056,170.153 222.056 C 169.411 222.056,168.946 221.897,168.834 221.605 C 168.717 221.302,168.241 221.155,167.373 221.155 C 166.411 221.155,165.991 221.004,165.711 220.555 C 165.450 220.137,165.011 219.955,164.267 219.955 C 163.679 219.955,162.995 219.752,162.748 219.505 C 162.500 219.257,162.054 219.055,161.756 219.055 C 161.458 219.055,161.046 218.852,160.840 218.605 C 160.633 218.355,159.979 218.155,159.370 218.155 C 158.644 218.155,158.099 217.951,157.759 217.554 C 157.408 217.145,156.874 216.954,156.074 216.954 C 155.310 216.954,154.843 216.798,154.730 216.504 C 154.617 216.210,154.150 216.054,153.384 216.054 C 152.708 216.054,152.053 215.864,151.838 215.604 C 151.631 215.354,150.976 215.154,150.368 215.154 C 149.642 215.154,149.097 214.951,148.757 214.554 C 148.474 214.224,147.988 213.953,147.677 213.953 C 147.365 213.953,146.942 213.751,146.737 213.503 C 146.526 213.250,145.872 213.053,145.236 213.053 C 144.601 213.053,143.947 212.857,143.736 212.603 C 143.530 212.356,142.906 212.153,142.349 212.153 C 141.735 212.153,141.098 211.916,140.735 211.553 C 140.372 211.190,139.735 210.953,139.122 210.953 C 138.564 210.953,137.940 210.750,137.734 210.503 C 137.529 210.255,137.054 210.053,136.680 210.053 C 136.305 210.053,135.920 209.850,135.825 209.602 C 135.730 209.355,135.341 209.152,134.960 209.152 C 134.209 209.152,133.233 208.218,133.233 207.498 C 133.233 207.253,132.963 206.782,132.633 206.452 C 132.303 206.122,132.033 205.598,132.033 205.288 C 132.033 204.978,131.830 204.557,131.583 204.351 C 131.298 204.115,131.133 203.453,131.133 202.551 C 131.133 201.648,131.298 200.986,131.583 200.750 C 131.881 200.502,132.033 199.830,132.033 198.754 C 132.033 197.601,132.161 197.081,132.475 196.961 C 132.718 196.868,132.996 196.298,133.093 195.695 C 133.190 195.092,133.464 194.240,133.701 193.802 C 133.939 193.364,134.134 192.604,134.134 192.113 C 134.134 191.623,134.336 191.053,134.584 190.848 C 134.831 190.642,135.034 190.168,135.034 189.793 C 135.034 189.418,135.229 189.037,135.467 188.945 C 135.706 188.854,135.984 188.265,136.085 187.638 C 136.187 187.010,136.465 186.138,136.702 185.700 C 136.940 185.262,137.134 184.502,137.134 184.011 C 137.134 183.521,137.337 182.951,137.584 182.746 C 137.839 182.534,138.035 181.880,138.035 181.241 C 138.035 180.531,138.196 180.047,138.468 179.943 C 138.707 179.851,138.985 179.263,139.086 178.635 C 139.188 178.008,139.465 177.136,139.703 176.698 C 139.941 176.260,140.135 175.744,140.135 175.551 C 140.135 175.359,140.338 174.998,140.585 174.751 C 140.833 174.503,141.035 173.838,141.035 173.272 C 141.035 172.643,141.269 172.010,141.635 171.643 C 141.975 171.303,142.236 170.643,142.236 170.121 C 142.236 169.614,142.438 168.997,142.686 168.749 C 142.933 168.502,143.136 167.827,143.136 167.249 C 143.136 166.671,143.338 165.996,143.586 165.749 C 143.833 165.501,144.036 164.768,144.036 164.120 C 144.036 163.471,144.164 162.941,144.320 162.941 C 144.760 162.941,146.137 159.993,146.137 159.052 C 146.137 158.590,146.339 158.045,146.587 157.839 C 146.846 157.624,147.037 156.969,147.037 156.293 C 147.037 155.537,147.194 155.060,147.479 154.950 C 147.722 154.857,148.000 154.287,148.097 153.684 C 148.194 153.081,148.468 152.230,148.705 151.792 C 148.943 151.354,149.137 150.594,149.137 150.103 C 149.137 149.612,149.340 149.043,149.587 148.837 C 150.127 148.389,150.180 147.000,149.677 146.497 C 149.127 145.946,144.807 146.019,144.336 146.587 " stroke="none" fill="#fcb404" fill-rule="evenodd"></path></g></svg>
