<svg id="svg" version="1.1" width="400" height="300" viewBox="0 0 400 300" xmlns="http://www.w3.org/2000/svg" xmlns:xlink="http://www.w3.org/1999/xlink" ><g id="svgg"><path id="path0" d="M190.308 141.395 C 190.058 141.645,189.947 143.214,189.947 146.518 C 189.947 152.035,189.991 152.138,192.327 152.138 L 193.848 152.138 193.848 156.602 C 193.848 160.205,193.762 161.139,193.398 161.440 C 193.034 161.743,192.948 162.689,192.948 166.392 C 192.948 170.095,192.862 171.041,192.498 171.343 C 192.139 171.641,192.048 172.529,192.048 175.731 C 192.048 179.345,191.988 179.805,191.448 180.345 C 190.908 180.885,190.848 181.345,190.848 184.960 C 190.848 188.162,190.757 189.049,190.398 189.347 C 190.037 189.646,189.947 190.546,189.947 193.848 C 189.947 197.151,189.858 198.051,189.497 198.350 C 189.138 198.648,189.047 199.535,189.047 202.737 C 189.047 206.352,188.987 206.812,188.447 207.352 C 187.914 207.885,187.847 208.352,187.847 211.516 C 187.847 214.318,187.751 215.160,187.397 215.454 C 186.376 216.301,186.837 218.182,188.455 219.768 C 189.276 220.573,189.947 221.484,189.947 221.793 C 189.947 222.101,190.623 223.004,191.448 223.800 C 192.273 224.595,192.948 225.483,192.948 225.773 C 192.948 226.063,193.623 226.969,194.449 227.785 C 195.274 228.602,195.949 229.512,195.949 229.809 C 195.949 230.714,197.960 232.258,199.139 232.258 C 200.286 232.258,202.239 230.623,202.264 229.642 C 202.272 229.348,202.878 228.500,203.612 227.757 C 204.346 227.014,204.947 226.180,204.949 225.902 C 204.950 225.625,205.626 224.747,206.450 223.952 C 207.274 223.156,207.949 222.264,207.950 221.969 C 207.951 221.674,208.583 220.820,209.355 220.070 C 210.938 218.531,211.638 215.698,210.539 215.276 C 210.127 215.118,210.053 214.527,210.053 211.407 C 210.053 208.501,209.958 207.647,209.602 207.352 C 209.242 207.053,209.152 206.151,209.152 202.831 C 209.152 199.081,209.097 198.645,208.576 198.280 C 208.062 197.920,207.989 197.412,207.901 193.561 C 207.829 190.449,207.697 189.212,207.427 189.122 C 207.151 189.030,207.052 187.903,207.052 184.858 C 207.052 181.545,206.962 180.644,206.602 180.345 C 206.241 180.046,206.152 179.143,206.152 175.810 C 206.152 171.973,206.105 171.619,205.551 171.273 C 204.992 170.924,204.951 170.573,204.951 166.160 C 204.951 162.225,204.875 161.392,204.501 161.249 C 204.129 161.106,204.051 160.303,204.051 156.607 L 204.051 152.138 205.641 152.138 C 206.516 152.138,207.394 151.976,207.592 151.778 C 207.972 151.397,208.115 143.023,207.763 141.710 L 207.582 141.035 199.125 141.035 C 192.947 141.035,190.571 141.132,190.308 141.395 " stroke="none" fill="#e4e4e4" fill-rule="evenodd"></path><path id="path1" d="M193.248 30.458 C 192.989 30.770,192.299 30.908,190.986 30.908 C 188.827 30.908,188.147 31.095,188.147 31.690 C 188.147 31.986,187.749 32.108,186.787 32.108 C 185.855 32.108,185.373 32.250,185.255 32.558 C 185.137 32.864,184.658 33.008,183.754 33.008 C 182.851 33.008,182.372 33.152,182.254 33.458 C 182.149 33.733,181.694 33.908,181.088 33.908 C 179.797 33.908,179.145 34.171,179.145 34.691 C 179.145 34.956,178.813 35.109,178.235 35.109 C 177.703 35.109,177.254 35.296,177.153 35.559 C 177.058 35.806,176.671 36.009,176.293 36.009 C 175.884 36.009,175.234 36.433,174.684 37.059 C 174.177 37.637,173.510 38.110,173.202 38.110 C 172.895 38.110,172.249 38.511,171.768 39.001 C 171.287 39.492,170.641 39.897,170.333 39.902 C 169.517 39.914,159.040 50.479,159.040 51.291 C 159.040 51.643,158.837 52.010,158.590 52.105 C 158.342 52.200,158.140 52.433,158.140 52.623 C 158.140 52.813,157.869 53.138,157.539 53.344 C 157.209 53.550,156.939 53.954,156.938 54.241 C 156.937 54.529,156.464 55.278,155.888 55.906 C 155.311 56.534,154.839 57.226,154.839 57.444 C 154.839 57.662,154.636 58.009,154.389 58.215 C 154.141 58.420,153.938 58.851,153.938 59.173 C 153.938 59.495,153.736 59.960,153.488 60.208 C 153.241 60.455,153.038 61.121,153.038 61.687 C 153.038 62.316,152.805 62.949,152.438 63.316 C 152.075 63.679,151.838 64.316,151.838 64.929 C 151.838 65.487,151.635 66.111,151.388 66.317 C 151.140 66.522,150.938 67.156,150.938 67.725 C 150.938 68.294,150.735 68.963,150.488 69.210 C 150.174 69.524,150.038 70.291,150.038 71.739 C 150.038 73.418,149.922 73.934,149.437 74.419 C 148.869 74.987,148.837 75.419,148.837 82.521 C 148.837 89.622,148.869 90.055,149.437 90.623 C 149.922 91.107,150.038 91.623,150.038 93.302 C 150.038 94.750,150.174 95.518,150.488 95.831 C 150.735 96.079,150.938 96.747,150.938 97.316 C 150.938 97.885,151.140 98.519,151.388 98.725 C 151.635 98.930,151.838 99.554,151.838 100.112 C 151.838 100.725,152.075 101.362,152.438 101.725 C 152.805 102.092,153.038 102.726,153.038 103.354 C 153.038 103.920,153.241 104.586,153.488 104.833 C 153.736 105.081,153.938 105.547,153.938 105.868 C 153.938 106.190,154.141 106.621,154.389 106.827 C 154.636 107.032,154.839 107.379,154.839 107.597 C 154.839 107.815,155.311 108.507,155.888 109.136 C 156.464 109.764,156.937 110.502,156.938 110.777 C 156.939 111.052,157.412 111.763,157.989 112.358 C 158.567 112.953,159.040 113.654,159.040 113.915 C 159.040 114.602,169.650 125.131,170.342 125.131 C 170.654 125.131,171.258 125.529,171.685 126.015 C 172.112 126.502,172.802 126.985,173.219 127.090 C 173.636 127.195,174.355 127.675,174.817 128.156 C 175.279 128.638,175.901 129.032,176.200 129.032 C 176.499 129.032,177.014 129.302,177.344 129.632 C 177.674 129.962,178.200 130.233,178.513 130.233 C 178.825 130.233,179.158 130.435,179.253 130.683 C 179.371 130.989,179.850 131.133,180.754 131.133 C 181.657 131.133,182.137 131.277,182.254 131.583 C 182.368 131.880,182.838 132.033,183.636 132.033 C 184.446 132.033,185.045 132.232,185.446 132.633 C 185.811 132.997,186.447 133.233,187.065 133.233 C 187.693 133.233,188.149 133.406,188.256 133.683 C 188.388 134.027,188.952 134.134,190.652 134.134 C 192.262 134.134,192.978 134.258,193.248 134.584 C 193.563 134.963,194.863 135.034,201.500 135.034 C 208.137 135.034,209.438 134.963,209.752 134.584 C 210.022 134.258,210.736 134.134,212.325 134.134 C 213.855 134.134,214.597 134.010,214.764 133.727 C 214.896 133.504,215.601 133.244,216.330 133.149 C 217.077 133.052,217.772 132.770,217.920 132.505 C 218.089 132.204,218.600 132.033,219.333 132.033 C 219.988 132.033,220.642 131.840,220.855 131.583 C 221.071 131.323,221.725 131.133,222.402 131.133 C 223.168 131.133,223.635 130.977,223.747 130.683 C 223.842 130.435,224.176 130.233,224.488 130.233 C 224.801 130.233,225.326 129.962,225.656 129.632 C 225.986 129.302,226.501 129.032,226.801 129.032 C 227.100 129.032,227.733 128.627,228.207 128.132 C 228.681 127.637,229.319 127.232,229.624 127.232 C 229.928 127.232,230.650 126.759,231.228 126.182 C 231.805 125.604,232.496 125.131,232.762 125.131 C 233.414 125.131,243.961 114.559,243.961 113.905 C 243.961 113.621,244.434 112.942,245.011 112.398 C 245.589 111.853,246.066 111.153,246.071 110.842 C 246.083 110.188,247.052 108.927,247.542 108.927 C 247.726 108.927,247.957 108.525,248.056 108.034 C 248.154 107.542,248.421 106.986,248.648 106.797 C 248.876 106.608,249.062 106.147,249.062 105.772 C 249.062 105.397,249.265 105.013,249.512 104.918 C 249.816 104.801,249.962 104.325,249.962 103.457 C 249.962 102.495,250.114 102.075,250.563 101.795 C 250.995 101.525,251.163 101.095,251.163 100.259 C 251.163 99.593,251.355 98.939,251.613 98.725 C 251.867 98.513,252.063 97.859,252.063 97.220 C 252.063 96.491,252.223 96.027,252.513 95.915 C 252.862 95.782,252.963 95.198,252.963 93.333 C 252.963 91.473,253.059 90.923,253.381 90.923 C 254.452 90.923,254.627 75.013,253.563 74.349 C 253.047 74.026,252.963 73.649,252.963 71.636 C 252.963 69.835,252.860 69.259,252.513 69.126 C 252.223 69.014,252.063 68.551,252.063 67.822 C 252.063 67.182,251.867 66.528,251.613 66.317 C 251.355 66.102,251.163 65.448,251.163 64.782 C 251.163 63.946,250.995 63.516,250.563 63.246 C 250.114 62.966,249.962 62.546,249.962 61.584 C 249.962 60.716,249.816 60.240,249.512 60.124 C 249.265 60.029,249.062 59.644,249.062 59.269 C 249.062 58.895,248.860 58.420,248.612 58.215 C 248.365 58.009,248.161 57.621,248.159 57.353 C 248.157 57.084,247.684 56.406,247.109 55.847 C 246.533 55.287,246.062 54.544,246.062 54.195 C 246.062 53.836,245.605 53.179,245.011 52.684 C 244.434 52.203,243.961 51.541,243.961 51.214 C 243.961 50.442,233.464 39.915,232.677 39.897 C 232.364 39.890,231.777 39.485,231.372 38.997 C 230.942 38.479,230.345 38.110,229.937 38.110 C 229.515 38.110,228.875 37.695,228.317 37.059 C 227.767 36.433,227.117 36.009,226.708 36.009 C 226.330 36.009,225.943 35.806,225.848 35.559 C 225.753 35.311,225.363 35.109,224.982 35.109 C 224.601 35.109,224.058 34.839,223.776 34.509 C 223.449 34.128,222.890 33.908,222.245 33.908 C 221.686 33.908,221.061 33.706,220.855 33.458 C 220.645 33.204,219.990 33.008,219.355 33.008 C 218.719 33.008,218.065 32.812,217.854 32.558 C 217.647 32.308,216.993 32.108,216.384 32.108 C 215.659 32.108,215.113 31.905,214.773 31.508 C 214.352 31.016,213.888 30.908,212.193 30.908 C 210.722 30.908,210.018 30.778,209.752 30.458 C 209.438 30.078,208.137 30.008,201.500 30.008 C 194.863 30.008,193.563 30.078,193.248 30.458 M137.809 141.828 C 137.438 142.229,137.134 142.687,137.134 142.846 C 137.134 143.006,137.032 143.136,136.908 143.136 C 136.558 143.136,134.134 145.496,134.134 145.836 C 134.134 146.001,134.032 146.137,133.907 146.137 C 133.558 146.137,131.133 148.497,131.133 148.837 C 131.133 149.002,131.031 149.137,130.906 149.137 C 130.557 149.137,128.132 151.497,128.132 151.837 C 128.132 152.003,128.030 152.138,127.905 152.138 C 127.556 152.138,125.131 154.498,125.131 154.838 C 125.131 155.003,125.029 155.139,124.905 155.139 C 124.555 155.139,122.131 157.499,122.131 157.839 C 122.131 158.004,122.029 158.140,121.904 158.140 C 121.555 158.140,119.130 160.500,119.130 160.840 C 119.130 161.005,119.028 161.140,118.903 161.140 C 118.554 161.140,116.129 163.500,116.129 163.840 C 116.129 164.006,116.027 164.141,115.902 164.141 C 115.553 164.141,113.128 166.501,113.128 166.841 C 113.128 167.006,113.026 167.142,112.902 167.142 C 112.552 167.142,110.128 169.502,110.128 169.842 C 110.128 170.007,110.026 170.143,109.901 170.143 C 109.552 170.143,107.127 172.503,107.127 172.843 C 107.127 173.008,107.025 173.143,106.900 173.143 C 106.551 173.143,104.126 175.503,104.126 175.843 C 104.126 176.009,104.024 176.144,103.899 176.144 C 103.550 176.144,101.125 178.504,101.125 178.844 C 101.125 179.009,101.023 179.145,100.899 179.145 C 100.549 179.145,98.125 181.505,98.125 181.845 C 98.125 182.010,98.023 182.146,97.898 182.146 C 97.549 182.146,95.124 184.506,95.124 184.846 C 95.124 185.011,95.022 185.146,94.897 185.146 C 94.548 185.146,92.123 187.507,92.123 187.846 C 92.123 188.012,92.021 188.147,91.896 188.147 C 91.547 188.147,89.122 190.507,89.122 190.847 C 89.122 191.012,89.020 191.148,88.896 191.148 C 88.546 191.148,86.122 193.508,86.122 193.848 C 86.122 194.013,86.020 194.149,85.895 194.149 C 85.546 194.149,83.121 196.509,83.121 196.849 C 83.121 197.014,83.019 197.149,82.894 197.149 C 82.545 197.149,80.120 199.510,80.120 199.849 C 80.120 200.015,80.018 200.150,79.893 200.150 C 79.544 200.150,77.119 202.510,77.119 202.850 C 77.119 203.015,77.017 203.151,76.893 203.151 C 76.543 203.151,74.119 205.511,74.119 205.851 C 74.119 206.016,74.017 206.152,73.892 206.152 C 73.767 206.152,73.067 206.715,72.337 207.403 C 70.393 209.233,70.196 213.053,72.046 213.053 C 72.450 213.053,81.169 221.572,98.154 238.560 L 123.657 264.066 125.014 264.066 L 126.372 264.066 132.579 257.851 L 138.785 251.636 138.935 260.026 C 139.017 264.641,139.194 268.586,139.328 268.792 C 139.699 269.366,260.248 269.341,260.724 268.767 C 260.944 268.501,261.082 265.558,261.135 259.990 L 261.215 251.613 267.430 257.839 L 273.644 264.066 275.011 264.066 L 276.377 264.066 301.875 238.560 C 316.925 223.505,327.597 213.053,327.918 213.053 C 328.845 213.053,329.182 212.400,329.182 210.608 L 329.182 208.884 295.260 174.960 L 261.339 141.035 238.006 141.035 C 220.259 141.035,214.587 141.121,214.314 141.395 C 214.061 141.647,213.953 143.302,213.953 146.915 C 213.953 151.224,213.879 152.102,213.503 152.247 C 213.256 152.342,213.053 152.765,213.053 153.188 C 213.053 153.611,212.859 154.032,212.621 154.123 C 212.384 154.214,212.103 154.683,211.997 155.164 C 211.853 155.823,211.634 156.039,211.111 156.039 C 209.986 156.039,209.485 159.995,210.503 160.840 C 210.863 161.139,210.953 162.038,210.953 165.341 C 210.953 168.644,211.043 169.544,211.403 169.842 C 211.762 170.140,211.853 171.028,211.853 174.230 C 211.853 177.844,211.913 178.304,212.453 178.845 C 212.993 179.385,213.053 179.845,213.053 183.459 C 213.053 186.661,213.144 187.549,213.503 187.847 C 213.864 188.146,213.953 189.045,213.953 192.348 C 213.953 195.651,214.043 196.550,214.404 196.849 C 214.763 197.147,214.854 198.035,214.854 201.237 C 214.854 204.851,214.914 205.311,215.454 205.851 C 215.994 206.392,216.054 206.852,216.054 210.466 C 216.054 213.668,216.145 214.556,216.504 214.854 C 216.789 215.090,216.954 215.752,216.954 216.659 C 216.954 217.654,216.817 218.143,216.504 218.263 C 216.196 218.381,216.054 218.864,216.054 219.796 C 216.054 220.546,215.913 221.155,215.739 221.155 C 215.565 221.155,215.233 221.610,215.001 222.165 C 214.769 222.721,213.763 223.984,212.766 224.972 C 211.769 225.960,210.953 227.010,210.953 227.305 C 210.953 227.600,210.548 228.229,210.053 228.702 C 209.557 229.175,209.152 229.696,209.152 229.860 C 209.152 230.024,208.946 230.158,208.695 230.158 C 208.426 230.158,208.163 230.529,208.057 231.056 C 207.953 231.578,207.266 232.555,206.422 233.382 C 205.622 234.167,204.963 235.045,204.959 235.334 C 204.949 236.031,203.893 237.059,203.188 237.059 C 202.878 237.059,202.456 237.262,202.251 237.509 C 201.965 237.853,201.185 237.959,198.945 237.959 C 196.616 237.959,195.978 237.867,195.840 237.509 C 195.745 237.262,195.347 237.059,194.955 237.059 C 194.141 237.059,193.248 236.212,193.248 235.441 C 193.248 235.154,192.573 234.262,191.748 233.458 C 190.923 232.655,190.248 231.788,190.248 231.532 C 190.248 231.276,189.579 230.356,188.762 229.487 C 187.945 228.618,187.199 227.600,187.104 227.224 C 186.938 226.565,184.636 224.156,184.173 224.156 C 184.048 224.156,183.946 223.968,183.946 223.738 C 183.946 223.508,183.743 223.242,183.496 223.147 C 183.248 223.052,183.046 222.629,183.046 222.206 C 183.046 221.783,182.843 221.359,182.596 221.264 C 182.306 221.153,182.146 220.689,182.146 219.960 C 182.146 219.320,181.950 218.666,181.695 218.455 C 181.109 217.968,181.116 215.501,181.705 214.721 C 182.041 214.278,182.146 213.197,182.146 210.182 C 182.146 207.031,182.237 206.149,182.596 205.851 C 182.955 205.553,183.046 204.666,183.046 201.464 C 183.046 197.849,183.106 197.390,183.646 196.849 C 184.185 196.311,184.247 195.842,184.256 192.273 C 184.263 189.253,184.371 188.157,184.706 187.715 C 185.041 187.271,185.146 186.190,185.146 183.175 C 185.146 180.024,185.238 179.142,185.596 178.845 C 185.955 178.547,186.047 177.659,186.047 174.457 C 186.047 170.843,186.106 170.383,186.647 169.842 C 187.185 169.304,187.248 168.835,187.256 165.266 C 187.264 162.246,187.372 161.150,187.706 160.708 C 188.801 159.260,188.132 156.039,186.737 156.039 C 186.210 156.039,186.047 155.870,186.047 155.326 C 186.047 154.933,185.844 154.444,185.596 154.239 C 185.349 154.033,185.146 153.628,185.146 153.338 C 185.146 153.049,184.944 152.644,184.696 152.438 C 184.329 152.134,184.246 151.150,184.246 147.130 C 184.246 144.303,184.113 141.948,183.935 141.616 C 183.632 141.049,183.079 141.036,161.055 141.067 L 138.485 141.099 137.809 141.828 M138.865 217.775 L 138.785 225.498 131.208 217.930 C 127.041 213.767,123.631 210.231,123.631 210.072 C 123.631 209.912,127.041 206.372,131.208 202.205 L 138.785 194.628 138.865 202.340 C 138.909 206.582,138.909 213.528,138.865 217.775 M268.685 203.026 C 276.118 210.452,276.440 210.829,275.619 211.144 C 275.371 211.239,275.169 211.505,275.169 211.735 C 275.169 211.965,275.034 212.153,274.869 212.153 C 274.704 212.153,274.029 212.693,273.368 213.353 C 272.708 214.014,272.168 214.689,272.168 214.854 C 272.168 215.019,272.033 215.154,271.868 215.154 C 271.703 215.154,271.028 215.694,270.368 216.354 C 269.707 217.014,269.167 217.689,269.167 217.854 C 269.167 218.020,269.032 218.155,268.867 218.155 C 268.702 218.155,268.027 218.695,267.367 219.355 C 266.707 220.015,266.167 220.690,266.167 220.855 C 266.167 221.020,266.032 221.155,265.866 221.155 C 265.701 221.155,265.026 221.695,264.366 222.356 C 263.706 223.016,263.166 223.691,263.166 223.856 C 263.166 224.021,262.963 224.156,262.716 224.156 C 262.468 224.156,262.266 224.286,262.266 224.446 C 262.266 224.605,261.995 224.880,261.665 225.056 C 261.069 225.375,261.065 225.284,261.065 210.513 C 261.065 202.338,261.118 195.649,261.183 195.649 C 261.248 195.649,264.623 198.969,268.685 203.026 " stroke="none" fill="#fcb404" fill-rule="evenodd"></path><path id="path2" d="" stroke="none" fill="#f0cce8" fill-rule="evenodd"></path></g></svg>
