<svg id="svg" version="1.1" width="400" height="300" viewBox="0 0 400 300" xmlns="http://www.w3.org/2000/svg" xmlns:xlink="http://www.w3.org/1999/xlink" ><g id="svgg"><path id="path0" d="M145.410 133.402 C 144.692 134.121,144.689 166.852,145.408 167.570 C 146.089 168.252,255.500 168.297,256.432 167.616 C 257.177 167.071,257.362 134.212,256.624 133.473 C 255.972 132.821,146.062 132.751,145.410 133.402 M137.224 133.684 C 136.870 133.932,135.882 134.506,135.028 134.959 C 132.187 136.468,132.033 136.565,132.033 136.851 C 132.033 137.007,131.773 137.134,131.454 137.134 C 131.136 137.134,130.695 137.303,130.474 137.509 C 130.253 137.716,129.406 138.222,128.592 138.635 C 127.777 139.047,126.564 139.741,125.896 140.177 C 124.367 141.174,121.614 142.731,120.631 143.154 C 120.220 143.332,119.452 143.805,118.927 144.206 C 118.401 144.607,117.657 145.070,117.275 145.235 C 116.892 145.400,116.377 145.661,116.129 145.815 C 113.943 147.174,111.914 148.237,111.509 148.237 C 110.921 148.237,109.830 149.925,109.829 150.838 C 109.826 152.269,110.169 152.552,115.390 155.439 C 116.435 156.017,118.234 157.063,119.388 157.764 C 120.541 158.466,121.698 159.040,121.958 159.040 C 122.218 159.040,122.431 159.153,122.431 159.292 C 122.431 159.430,122.734 159.702,123.106 159.895 C 123.477 160.088,124.186 160.512,124.681 160.837 C 125.176 161.162,126.392 161.852,127.382 162.369 C 129.768 163.615,130.744 164.162,132.183 165.060 C 134.195 166.316,134.549 166.517,135.522 166.957 C 136.038 167.190,136.553 167.529,136.665 167.711 C 137.053 168.339,139.158 168.103,139.668 167.375 C 140.374 166.366,140.374 134.909,139.668 133.900 C 139.126 133.127,138.144 133.040,137.224 133.684 " stroke="none" fill="#e4e4e4" fill-rule="evenodd"></path><path id="path1" d="M261.537 133.405 C 260.917 134.025,260.809 167.066,261.425 167.682 C 261.944 168.201,290.194 168.201,290.713 167.682 C 291.232 167.162,291.232 133.813,290.713 133.293 C 290.098 132.679,262.156 132.786,261.537 133.405 " stroke="none" fill="#fcb304" fill-rule="evenodd"></path></g></svg>
